<mxfile host="Electron" modified="2024-03-13T06:11:47.182Z" agent="Mozilla/5.0 (Windows NT 10.0; Win64; x64) AppleWebKit/537.36 (KHTML, like Gecko) draw.io/21.6.5 Chrome/114.0.5735.243 Electron/25.3.1 Safari/537.36" etag="BEZoZWJmULtEliRp_czW" version="21.6.5" type="device">
  <diagram name="페이지-1" id="2M3Gtf31sdZXIGlUsh_w">
    <mxGraphModel dx="1687" dy="993" grid="1" gridSize="10" guides="1" tooltips="1" connect="1" arrows="1" fold="1" page="1" pageScale="1" pageWidth="1390" pageHeight="980" math="0" shadow="0">
      <root>
        <mxCell id="0" />
        <mxCell id="1" parent="0" />
        <mxCell id="IWE-RGEcfRXM-lWMtXAG-9" value="" style="rounded=0;whiteSpace=wrap;html=1;" vertex="1" parent="1">
          <mxGeometry x="20" y="20" width="1150" height="460" as="geometry" />
        </mxCell>
        <mxCell id="IWE-RGEcfRXM-lWMtXAG-2" value="" style="rounded=0;whiteSpace=wrap;html=1;" vertex="1" parent="1">
          <mxGeometry x="663" y="40" width="487" height="400" as="geometry" />
        </mxCell>
        <mxCell id="IWE-RGEcfRXM-lWMtXAG-4" value="" style="shape=image;verticalLabelPosition=bottom;labelBackgroundColor=default;verticalAlign=top;aspect=fixed;imageAspect=0;image=data:image/png,iVBORw0KGgoAAAANSUhEUgAAAnsAAADLCAYAAAAWYVXLAAAAAXNSR0IArs4c6QAAAARnQU1BAACxjwv8YQUAAAAJcEhZcwAADsMAAA7DAcdvqGQAABjqSURBVHhe7d0LlBTVncfxf/f0PGBmAIcBBpCHBFk0GB4RohI1iY+QaHxkIagRH8djXCOb4GZxY4wm+NgkGFeyamI0ORtlYzRBo1FXE/JQFIJoQFyIrhBQEAUZCTDCvLu3/5eqtqip7qnu6Z6uLr6fc+6pR1f3DMM59/z6f+veiiSSBAAAAKEUtbYAAAAIIcIeAABAiPkaxmWkFwAAIFgikYi1l1nasOc8nW4fAAAAvccZ8NLtu3mGPfuUbt0NAAAAxaPBzt3s8166hD1nsIvH46bZ+/Z5J/cxAAAA8sMd4OxwF41GU1t7325uB4U9O8zZIa+zszPVnMHPvhYAAACFZ4c4Z8ArKytLNXfoc0qFPd1os0NeR0dHquk5c7FHWgQAAEDvsQtuGu5isViq2aHPHfhM2LPfZAe99vb2VHv77e3yiwcekWefWWH2AQAAUDzDhjXIyZ84Qc6/4PNmv7y8PNXswKfswJcKe9rsil5bW5tpy5evkq9fc6M0N7eYiwEAABAMffpUyXcX3iDTp0+TiooK0+wKn7O6lwp7WtXToKfVvNbWVtm27R35wszLCHoAAAABpYHvl0t+KsOHD5XKykpT3dPAZw/nqqgGPWezJ2Po0C1BDwAAILg0qz3w80dSt+K5c51KPS5NT+iF2tQzf1putgAAAAiuZ585kNnsHGeHPNtBYc8OfFr2YzIGAABA8Glm0+xmBz3PsGef9LoAAAAAwefMcc48l6rsAQAAIHy6hD0qewAAAKUnXYY7KOwR9AAAAEqXV5ZjGBcAACDECHsAAAAhRtgDAAAIMcIeAABAiBH2AAAAQiywYe+E6dPkhReXyptb15qtHjs98It7zGte7fd//LV11cGf89dXV8jn//FM65X8Wnjrt1M/X/fd9Ofqz7ev8dM2bnpJvvavV1mfAAAAkL1eC3sawLwCjbs5g1qxzT7vXPnt0iXyt82rze/2+sZV8uhji+W444+1rgAAAAi2kh3GveD8L8moERM926mfOte6Knfzrv4n+da35sv48UdKLFZmzlVWVsrkKR+RRT/4d/nEJz9uzvn1yMNPyNFHneD5+7rbhg2brHcBAAD0TK+FPQ1gXsFG2w3Xf1f272821727Y6fZetEhTR3adFcD0zW99rTTPmG92z8d+tWqXnVNtbS2tsq999wvJ04/Q3779B+lszMuQ4cOSf4uXzavAwAABFkgKnv19XVSXh6zjorvjDNOl4aGwWZ/+fOr5OabbpMtW96S735nkbz5xhZzfty4sTJnzhfMvh/Z3LN35JFjrHcBAAD0TCDCXiQasfZE9jcfqPB5ue37d8nYMcd6Vge9ml67dOkz1rv9mzRpgkSjUWlvb5d16161zops2vSmrF79itmvqqqUY6dOMvsAAABBFYiwN3hQvZSXl5v9Xe/93Wy7c/LJJ8iSR34m619dIW9sedlUxDb87UUzoUKHYHM1bdoUGVhfZ/ZbWlpl48bNZt/29tvbTQhUI0YMN9ts6T15XuHU3TSsasAFAADIVSDC3tBhDWarIaqxcZd85rOnymGHDTDnvFw4Z5bc+cOFMnXqZKmpqZZI5EBlsKKiwkyouOnma2X+Nf9szjnpPXa3L7rFBMN0y7D0618rFVbw3Ldvv+zc2Wj2bVu3bpO2tgNhr6zswMSNbOkwrXPYNlPTJWYAAAByVfCw52dSxUknHW+u1ereVXMvk7t/fJvM+Mwp5pybBrYLLpgp/frVmskTD/x8iRw37XQz0/X2//iRNDW9b2bNzpx1Vpe1+fzQz9Uh2nQ6OjpEEgmzH4vFZOTIw80+AABAEAWisqd0lqtW0va9v0/eeWeH7EgzK3fixA+nhln//vc98vjjvzXX6/sW3X63vPrq6+a12mQotCdZ2PSaq+ddZ4ZINRzqcihue/c2meHbdDTgiVVJ1OCnEzf8yGbpFWfTJWYAAAByVfCwl25SxfLnXzCv69Dtf/7gHhkzerIcPf54E4i0UvfHPywzr7utXbte3mvcZfYPO6y/fO5znzZLoWjFT9fGO+qocea1pmSw2779XbOfjb17mqTNuievurqvDBpUb/Ztep9eRcWBYd7Ozk6zTSeXp2Zkal5P5gAAAMgkMJU9dzD6xYP3dqnMKa3OPfDAElOB0+HaC744U1au+p1579X/cqXU1taY4d0lv/qNrFi+ynqXf6tWrU6FSR3OHTv2CLNvGzasITWZRO/fAwAACLLAhL1s/PfiX8ncL18jzz+3Ut5Phr+EdQ9dc3OLrF/3mlz/ze/IrQvvMOdy8fLL6yQej5tQN2HCUdZZkTFjRsmUKR8x+zrU+9KLL5v9dHIduk3XrplPZQ8AAGSnaGHvzTe3mvvrXnttg3lqhjsYnX/e5RmHYZ99doV88YIr5MPJ94weOcm8Z/y4j8lnPzNbHnqwZ8/XffLJ36V+9vSPT5NvXv81MxHj69fOk1GjR5rzr7++URYv/qXZBwAACKpeDXvOodpRo0bIjNNnyZmfPT9woUmHfzUw6pCxDhVf/qWL5LnlT8qnZ3xKysqiZkLIbd//oXndr1zv3+M+PQAA0BOBHcbdngxU//PkUlPx060eO+myKi+8uNQEIg1RXmvmKefnPPbYU7J584HHnXVHZ/YuWHCrqTx2dByYiKH3Aq5Z/YrM++o35Jk/PW/OAQAABFlgw54+mmzBtxeapVJ0q8e5cH7OtV+/yYQ1v7S69+nTZsqHjphihonHjZ0m55w9R1b++SXritx09wQNe6YyAABATxUt7E3/+Me6DFmma7oosy7OnI7zyRjdNYZFAQDAoSSwlb0w6+5xaRqEAQAA8iESj8cTusyILhCs96S1tLSYZ81+dLL348rgTSuGs8871+zr8K97mRS9p/Dmm79hqpDZ8PosAAAAp7+s+YNZiq6qqspMLtXn90ejUZPpCHsAAAAlLlPYYxgXAAAgxAh7AAAAIUbYAwAACDHCHgAAQIgR9gAAAEKMsAcAABBihD0AAIAQI+wBAACEGGEPAAAgxAh7AAAAIUbYAwAACDHCHgAAQIgR9gAAAEKMsAcAABBihD0AAIAQI+wBAACEGGEPAAAgxAh7AAAAIRaJx+OJZJPOzk5pbW2VlpYWiUQiMnniydYlAAAACLI1a5+VRCIhVVVVUllZKWVlZRKNRk2mSxv26uvrrbcDAAAgyBobG9OGPYZxAQAAQoywBwAAEGKEPQAAgBAj7AEAAIQYYQ8AACDECHsAAAAhRtgDAAAIMcIeAABAiBH2AAAAQoywBwAAEGKEPQAAgBAj7AEAAIQYYQ8AACDECHsAAAAhRtgDAAAIMcIeAABAiBH2AAAAQoywBwAAEGKEPQAAgBAj7AEAAIQYYQ8AACDECHsAAAAhRtgDAAAIMcIeAABAiBU17CXiHZLobLWOACA7heg/6JcA9EQQ+49IPB5PJJt0dnZKa2urtLS0SCQSkfr6euuSwtA/xr4dL0lz4yvWGQDITiRSJtHyvhLr2yAVNcOkvGaElFXUWq9mj34JQE/lu1/yq7GxURKJhFRVVUllZaWUlSV/j2jUZLqihD395rxv+wt0qADyqry6QSoHjJOqw8ZJJFpunfWHfglAIfSkX8pGprBXnGHcRCcdKoC8a9+3Xd7ftiwZ2lYlu5k266xP9EsACqBH/VKeFG0Yd+crP7L2PtDa1iGL7lspa/663Rxfe8WJMnH8ELOvnl62Udb+33aZd/FxUlkRS5372a9fNvvqtBPGyGWzppj9ta/tkKef23DQ9QAODX3qPyLVDdOy+ibt1S+pN9/eIzf/cJk07WuVYYNr5VtzT5b+tVXmNbvfmvgPDTLjpLHmnPrpr1bL0hWbrCORS86dlHpd+61tO/am+qps7WlqkQV3PisXJz/T7iPd/acXd58KoHfl0i/5FbhhXOXuVO2Oqn5AX9MB6vE9D/1FzjplvIwa1t9c4wx7r216T77z4+fMeS/aqanuwp4GwkyfM/nohi7vdwdMN2fgBFA8NcNPlD4DJ1hH3fMKe3bQm3vhNBOU9Pg3f3hNvjT7o6ZfcIe9TP1DbXWlfPPLJ8mrG3d2G/acfZM7YHqFvUyyvR5A4WTbL/lVEmFPO9CfLlktX7v0+FSH5vw2bfMKX+n0tLKX7v3O0JnL5wLoHeV9G6R25ClSVtHPOpOZV9jzqsJ5BTpn5a47Xp/ppH3fD5IB8qvJPka/7Or1v1v+t1TgI+wBpSvbfsmv4N2z52H33hap7lMuVZUfhKcBtZUydHCNfG/+afLg7TNNZ+qmQyXnXb0k1b537/Pmm7ZNhzQu/rdHu5z3SyuNBDqgNLXv3y7t779lHeVGQ9nwIQd3ykMH15ovnvd97xzTdN9J+xrtc5x9k/ZVTjrE63Ve/T4Z7D48dlBqVOOTx42WIfXV8uc16f8tXj/Tblfc8IS8/W6TdSWAYspHv5Stkq7suSts9nCKPRTsp7Lnvq/GzWtI1v1zAQRX5YAjpd/IU62jzPJV2bMDnP0eu7J2+vQPpYZ601X27H5sxolHHlSFc36mV6Uu3fsABE82/ZJfJVHZa0h+a9XK3pKn/2qOteN68Mn/NffJaFUvXWWvp7TjtD/f3TToub/RAygtHclv0T1x1NhBsnLtNvPlUemX0BUvb5Uf33im6Se8Kns90dLaITsa91lHH/DbF+l9fl7VPW0aMgEUX0/7pWyV/Gxcd2Uum3v6uqOffewxw7t8S/b6Vu/EBA0gQCJRGXTMFdZBZl79knKOMviZjevuy5TffiFdha67yh6AEpJFv+RXSUzQKDZ3B6ud6W3/9We5bOaU1H0zAEpQHsJeb3MPA7sDpTPsjR8zsEuw7A5LsABFdqiHve6qZu7Kndd9fU5+K33pvk0DKG36mKK68RdaR5ml65e8KnVu7tm4zqVTvGSq9Gm/ls/ZuACCJZt+ya/QVPa8hnEzyWbpFcIeEE49naDRHXfVzQ/tyzItvaKcYdHPOnt+AikVPSAYenuCRsmHvVwre929z02/hev9e5m+qbtls+4WgMKoPfxkqao72jrKLJ9hryeVve5kCnteX1j5MgsESzb9kl+hD3vuJVsAQOVjUeXuZAp7PVnUPRPCHlC6irGocugre/bjiZhkARx68vG4tO5kCnuZKnvuodlsMIwLlK5D+nFpAJBPuTxwnH4JQCHl0i/5lSnsFWVR5USnv/vkACAXpkMdMjWrDpV+CUAh5dIv5UtxnqARKTP/aADIp/LqBqkZftKBb85lFdZZn+iXABRAj/qlPCnaMK5+i9634yVpbnzFOgMA2YkkA1q0vK/E+jZIRc0wKa8ZYdavyhX9EoCeyne/5Fcg79lTiURcmpt2SlvLXol3dlhnAaBnomUxqajqJ31qByX7s+wGMOiXABRCT/olPwIZ9rRDbdq1Rcqkw/xCkWjEegUAeiYRT0hHsk+LS0xq60b67ljplwAUSq79kl+Bm6Ch9JtzNNmhxspjdKgA8kr7lPJk36J9jPY1ftEvASiUXPulfCha2NMhkliszDoCgPyLJb/Zal/jF/0SgELLtl/Kh6KFPb0XRkuLAFAo+k06m/vu6JcAFFq2/VI+FC3sAQAAoPAIewAAACFG2AMAAAgxwh4AAECIEfYAAABCjLAHAAAQYoQ9AACAECPsAQAAhBhhDwAAIMQIewAAACFG2AMAAAgxwh4AAECIEfYAAABCjLAHAAAQYoQ9AACAECPsAQAAhBhhDwAAIMQIewAAACFG2AMAAAgxwh4AAECIEfYAAABCjLAHAAAQYoQ9AACAECPsAQAAhFjRwl60LCaJRMI6AoD8S8QTpq/xi34JQKFl2y/lQ9HCXkVVP2nv6LCOACD/tI/RvsYv+iUAhZZtv5QPRQt7fWoHJb9Bx6Strd2kXADIF+1TTN8iMdPX+EW/BKBQcu2X8iESj8cTySadnZ3S2toqLS0tEolEpL6+3rqkcBKJuDQ37ZS2lr0S7+TbNID80CES/easHWokkt13WvolAIXQk37Jj8bGRnMbSlVVlVRWVkpZWZlEo1GT6Yoa9gAAANBzmcJe0YZxAQAAUHiEPQAAgBAj7AEAAIQYYQ8AACDECHsAAAAhxmxcAABgcsC6detk69atJguUgilTplh7waezY2tqaqSurs7krHxj6RUAAJCWZoBly5bJ3r17UwGhFEycOFEGDhxoHQWb/o3b2trMdtAgXWsvv39jll4BAABprV+/3gQ9DQilEvRKjf5t+/TpY7Z79uyxzvYOwh4AAIe4t956y1SBUHgVFRWyf/9+66h38D8LAMAhzr6Fq9TosGWpNQ3VHR29+yhGwh4AAECIEfYAAABCjLAHAAAQYoQ9AACAECPsAQCAvNJ1e9944w2zVbqe77Zt22TDhg1d2rvvvmuucb+nEHQiyo033ihnnXVWqj3++OPWqx+87jzn5ueaoCHsAQBwiPOaNZqu7d69O21os69x0mOd6Tts2DAZO3Zsqo0cOVLKy8ulf//+nu8pRNPFhq+//np57LHHUu3MM8/scl2m36G5uVm2b98uw4cP93zdb+tNhD0AAOCbhjNnaDviiCPM2nHa/NJKnz7xQcNeLBazzhaWXZE7++yzu7QnnnjCuqp7mzdvNusSrly50joTfIQ9AACQMx121UeA6dMh/GpqajILC1dXVx+0mLOGwC1btsjGjRvzvvCwPkbshhtuOKiqN2PGDNO0uueHVjV/8pOfyIUXXig7d+7MKiQWE2EPAADkbN++feYB//oYMDuo6VaDmxcNSbt27ZLBgwebrfPRYRr8dHhXK4Z9+/a1zuafhrarrrrK/C6XXnqpdTYzfc91110nEyZMkFmzZsmcOXPkoYceKonAR9gDAAA50eqbhjUdwtWwZwc13bofv9bW1maGQPWeN329X79+Zqvv13DYG0+V0J+vIU1D2y233GL2L7/8cjOUq0O8OtTrZg//XnzxxSboXXnllea8Dl/fcccd8tRTT5nP0c8OKsIeAADImg7d6n13Sit0GubS0QqaBrq6ujoT8DQYKjsgNjQ0mONC0grc4sWL5d5775W77rpLBgwYYAKbntMK3Ve+8hUz1OukQW/hwoWyY8cOue+++0zQs6uCa9asMZ+hnzV79myZN2+eORdEhD0AAJAVHaLVAKSTK8aMGWPuvXvnnXdMAFT2bFN7O2jQIFPx08kdXuzKoMpmpqo9s9VPO+OMM8xMXJ2R635NzzlnBTvP63vuvPPO1Ovua7TpZz/66KMyadKkg85nar2JsAcAAHzToKdLj7S3t8uQIUPMcG19fb2ZWavVu+7WydPXdchT7+1ztvfee09GjBhhAla+6fp9F110kZxzzjkZW1Arcz1F2AMAAL7oZIxNmzaZfQ1mdjVOA5+uo6cVPueECzd9/9atW83kDHvpFm1aHVT6ml0dzKfRo0fL/fffb6pv2hYtWmTWydOtfU7b5MmTrXeEC2EPAAD4omFOw5kGO/cEDKUhTls6GvZ0YoZ+jpN+1sCBA03V0GuSRLHcfffdXap/l1xyiVlnb8GCBV1emzt3rrmnL2giyT9sQv+4mqS1tKp/ZF3pWkuyAAAg/B5++OGsFkXujuYJHerViRfOYVkNe3pv39ChQw8KfM6h4cMPPzxVMezOMcccY0JitnRY99Zbb5X58+ebqp9NM5Ce1wqf37X3cqFD1s6fmw86WUbvBdRJJvo317+hhmjNdFT2AABAr9CAp8O/+mg15/16OjSskz1GjRrlO+jBPyp7AAAc4vJd2estuu5dLpW9YtPKni77kk9U9gAAAA5RhD0AAIAQI+wBAACEGGEPAAAgxAh7AAAAIUbYAwDgEKezN3VlDuezW2mFaR0dHZ4LUhcSYQ8AgEOcrn2nYQ+Fp8vc1dTUWEe9g7AHAMAhTter08eY6Zq7Wn1C/unfdv/+/SZU19XVWWd7B4sqAwAAkwPWr19vnvsapOfTZjJ16lRrL/h0keO+fftK//79Tc7Kt0yLKhP2AAAASpzvJ2gUImkCAACgd3hluS737BH4AAAASk+6DMcEDQAAgBAzYc9OgrqlsgcAAFB6nDnOmedSlT37Ar2Zz170DwAAAMGmmU2zW2r2rSPoqYPCnl6kTRH2AAAAgs/ObHaO6xL27ARoN3uqbnNzMwsrAgAABJgun6eZTbObZjh3rlNdKnt6YSwWMylx9+7dZv09AAAABItmtT179pitZjfn2npOkcQB5sBeXLm9vT3V9A264nN5ebn5IPcHAAAAoHdoZtNw19bWlhqF1YxmNzvwKTuzmbCnO7rRZgc+/SC76TlzMUEPAACgqKzoZkKdFuLs5qzsOTNbKuwpZ+CzQ5/d7HP25Y63AQAAoIBSVbrkVgOdNg13drPPuYOeOijsKT20mzPg2VttTu5jAAAA5EeX4GaFOTvYuUOeNrcuYU/Zp3TrbgAAACgeZ7BzBjx76+YZ9pTzdLp9AAAA9B5noEu375Y27DkR8AAAAIIlU8Bz8hX2AAAAUJpSiyoDAAAgfAh7AAAAIUbYAwAACDHCHgAAQIgR9gAAAEJL5P8BEQ0Z0kNsoMQAAAAASUVORK5CYII=;" vertex="1" parent="1">
          <mxGeometry x="680" y="50" width="437.94" height="140" as="geometry" />
        </mxCell>
        <mxCell id="IWE-RGEcfRXM-lWMtXAG-11" value="" style="rounded=0;whiteSpace=wrap;html=1;" vertex="1" parent="1">
          <mxGeometry x="680" y="200" width="430" height="220" as="geometry" />
        </mxCell>
        <mxCell id="IWE-RGEcfRXM-lWMtXAG-12" value="NO" style="rounded=0;whiteSpace=wrap;html=1;fillColor=#e3c800;fontColor=#000000;strokeColor=#B09500;" vertex="1" parent="1">
          <mxGeometry x="680" y="230" width="70" height="40" as="geometry" />
        </mxCell>
        <mxCell id="IWE-RGEcfRXM-lWMtXAG-14" value="역할아이디" style="rounded=0;whiteSpace=wrap;html=1;fillColor=#e3c800;fontColor=#000000;strokeColor=#B09500;" vertex="1" parent="1">
          <mxGeometry x="750" y="230" width="120" height="40" as="geometry" />
        </mxCell>
        <mxCell id="IWE-RGEcfRXM-lWMtXAG-15" value="역할 이름" style="rounded=0;whiteSpace=wrap;html=1;fillColor=#e3c800;fontColor=#000000;strokeColor=#B09500;" vertex="1" parent="1">
          <mxGeometry x="870" y="230" width="120" height="40" as="geometry" />
        </mxCell>
        <mxCell id="IWE-RGEcfRXM-lWMtXAG-16" value="삭제" style="rounded=0;whiteSpace=wrap;html=1;" vertex="1" parent="1">
          <mxGeometry x="830" y="200" width="60" height="20" as="geometry" />
        </mxCell>
        <mxCell id="IWE-RGEcfRXM-lWMtXAG-19" value="" style="shape=image;verticalLabelPosition=bottom;labelBackgroundColor=default;verticalAlign=top;aspect=fixed;imageAspect=0;image=data:image/png,iVBORw0KGgoAAAANSUhEUgAAAywAAAIJCAYAAABHmLmsAAAAAXNSR0IArs4c6QAAAARnQU1BAACxjwv8YQUAAAAJcEhZcwAADsMAAA7DAcdvqGQAAHhgSURBVHhe7d0HfBzVtfjxs0W92bLcsTHFGEyvIYAhdFNCSSBAYv70ZkgChBInYIrJA0MoSRxqIDEhlAcECAQI5SWAMQ692oApBtu4yUWS1bW7/z3XM2K1Wu3ONml29/f9vPu0c3e2mOge3TO3jOeKK64ICQAAAAC4kNf6CQAAAACu0z3CcuWVV5oKAAAAAHALM8ISCjErDAAAAID7eElWAAAAALgVa1gAAAAAuJa3paVFmpubrUMAAAAAcA9GWAAAAAC4ltfv94vP57MOAQAAAMA9vJqskLAAAAAAcCNvmP4/6xAAAAAA3MPr8XhECwAAAAC4jdklTAsAAAAAuI1XmuaLrF9gHQIAAACAe/j22GX8lXqv+4O//5MNNRnEXfQBAACAwpPJJSeei846NBQMJxY33vG0VZWeyCSlr8cAAAAA8ktkktLX41RkNGGxkxL9GV0AAAAA5DdNTqKLXZ+qjCUskclJMBg0xX5s10eKPgYAAACQO6KTEDtB0Vum2D/tx3ZJRUYSFjshsROVQCDQXSKTF/tcAAAAAPnBTkQikxT75vRaohOXZKWdsEQmK5qgdHV1dRetU6lmUwAAAAByhz04oQmK3+/vLnbikkrSklbCYn8hO1np7OzsLt98s1weuP/v8tJ/5prHAAAAAPLbqFEjZJ/v7SEn/PgH5nFRUVF3sZMWlUzSsuEVaYgeXdFk5dVXX5fjjj3dJCwkKwAAAEBhsActNBfQnEBzA80R7KUi9oBHMjKesCxbtkJ+ecnV0traZp0BAAAAoJBoLqA5geYGA5aw6IdFFvtLaEZFsgIAAAAUNs0J7v/b37sHN6LzB6cyNsKiRf3n36+anwAAAAAK20v/2ZAb2PlCMomKLSMJi5206OIZ1qwAAAAAUJobaI5gJyv9nrDYH5jqhwMAAADIf5H5QrJ5Q9ojLAAAAACQLRlLWBhhAQAAABBLOrlCRhIWkhUAAAAA8aSaMzAlDAAAAIBrkbAAAAAAcC0SFgAAAACuRcICAAAAwLVIWAAAAAC4FgkLAAAAANfKq4Tl+huulK8Wv2eKPk7FD354uMxfMNe8xwv/95ip0596/N83npc99tzN1KUi1ntH22//Sea8I46YLCNHDrdqe9t++63NeVr0MQAAAJCPciphsROHz754U35x0blWbWruf+DOtN5LExdNYPQ9+ir63hddcp71Cmd+9esL5eZbfiPXzZwu391jV6u2t59MOdacp0UfAwAAAPkoJ0dY9KYzXV1d1pF7tbd3yFdfLraOAAAAACQrZxKWisoK8Xo85nFnR6csXrzUPB4oc199Xb6z64Gy8Zjte5Tpl18nLS2t5pyVK1bJW2+9ax4DAAAASF7OJCzf+96eMqSu1jxubFovSxZ/Yx6nq6O9Q7788ivrKD2aVE2evJ+Ul5eZEaAX/+8V+eKL1N5b30une8WaaqbluOOPts4EAAAA8lfOJCx77LGbVFdXmceV4c78hAmbm8d90Q693bnX9SrRamqqzc9gKCSBQNA8TtfUqafKzrtsbx4v/PRzuf++h836GF3Lot9DExBNRAAAAAA4kxMJy5QTj5UjjpwsXu+Gr1tVVSk//fmZcvQPDjPHydp0042lsmpD4hAMbkhW7EX4qSYVF118rpx+xolSUlJijjUh2nzzTc3jVDSvb5YLzv91rylndnnowdi7jAEAAAD5xPUJiyYlP/v5WWZ0RZMLXTvS2Ngkw4cPlauu/qWcfc4p1pk9aYfe7tz/+IQzrdoNtpo4QQYNqjGPNfnZbbedzONUaHJzw2+vMt+jtHRDsqJGjR4pv73pauno6JTNN93FfA9NQDQRAQAAAOCMqxOWE0/8kVx++UUmOVGffPKZTL/8Wrl39kPS3t5uRjEuvuSn8rf775Add9rOnOPE7rvv3D29TEdt9thjV7ns179JOqnYZ5895JFH/izH/uhIKSoqkq6ugDz55L/kv/99y+xkpt/vFxdNlX8+/aAcPHk/61UAAAAAnHJlwqI3TPzDH2fKFVdd0r3QfumSZXLdtb+ThQu/kBuu/4Pcc/ffpK2tXfx+n+y513fkyqsuFa8v8T9HR0R23nmH7ullauzGG8mPk7iXiSYqDz18t9z959/LxK0niMfjMUnO7L88IOdNvUROOfmn8td7HzLfT5/TEZ2DDyZhAQAAAJLlyoRFRytqBw8KJyN+M1Lx3nsfybnnXiL/+fcc6wwxycsvL71KvvpqsXy84FO56MLLJehg8fzZZ58sW0zYzDzW165b12A+R+8s/7199zL1ieguZTqlTL+nfr8PP1gg55x9kVx91Q3meU1eLr/sWjnz9PPNc6+++l+5/PJrzXNOsUsYAAAA4NKE5euvl8iZZ14of3/0KZn9lwflhOPPkHfeft969luP/f2fsvdeh8vkg39kRl4S0bvTH3PsESbR0NGPBx/4u7z5xrsm6dBpZ7+c9nOzJXEi+l2u/Z9bzGtnXvd7OezQ4+Wll+Zaz35L6/S5E39yNmtXAAAAgBR4pk+fHtLF7DNmzLCqnNFOvr4uEAiY9SRtbW1m+tPOO+5vnZF5J/z4h3JsOOEYv8VmUlFRIT5rCpiuHdGF+PM/+lgeffRJk+hE0xGLO++8yUwf0++pi/dPP/182X77reXGm2bIqFEjzL9pwfxPZeNxY8LvX26SoAP2O1pe+L/HZPz4TWX58pVmjYu+Npa+vp9um9zc3Cyff/alzJkzz9ybRUd2/u/FV8zziegOZvq9lW4mcMnFV5rHAAAAgNu99c6Lpp9dWlpqdtT1+XxmeYb2yZ1w5QhLNE0WHn/ir3LtdZfLzrvsYBbM28mA0nUstbWDZK9Ju8tvb5whs+/9o1kHY9PHf/rTLd3JyrJlK+SOO2abUQ9NPv73ocdN0qXPTdhyvKNRlkiJvp8+1jrdGOC8n55hpnMt/npg79QPAAAA5IKcSFh+Oe182WHHbU1CsWbNOrnrrr+aaWL2tsX6+JGH/yFNTetNcrD3PnvIRRefZ716w40mOzo6zEiHjsTM+sNdPdbD3HzTbWbkYvHipXLXnbOlpbnFesaZ6O93318f7vX9tE6f03O+852dzWsAAAAAxOf6hEWnbG251XjT0W9paZVbbr5drrn6tz2mZenjX1x4udx26z1mpESHmHYMJxA6DUzp1K6T/t+5ct21t5htkTV5iKaL5Pfa41CzdXIyYn2/X//qml7fT+s0UWpt3TB1Tl+jr1U65SzWwnq72NPBVOQd/GOV629guhgAAADyh+sTFnueW7J8fp8MH1ZnHW1w1533moX62aKJiE5PAwAAAJAZ3paWFtHiVq+//rZ89OHHZqGOri05/4Kz5bLpF5kdv2z6WBfOnzP1VJPg6Lm6FbIubs82/ZyPFyw0n1lWVmrWqPzmfy7r9f1uuPEq+dnPzzTn6Ln6Gn2t0oX99vSxdAsL8gEAAJBPvEWhNVIUWmsdupNO5Xr3nQ9MR18X159xxonywIN3dU+D0se6XXFVVaVZp/LSf16Va39zs/Xq7Iv+flNOPLbX9/vRj44y927Rc/RcfQ0AAACA+HJi0b2uQTnqyBNl2i9nyFtvvmsWzmtiYtNtjXVB+5xX5slFv7jcrFfRncBSoVsiT9xqDzNaoSMfTiT6fvZif31Oz9Fzndw3BgAAACh0nmm/ODUUDIbkupvusaqc0ZGC/r4PCwAAAIDcUhD3YQEAAABQmEhYAAAAALgWCQsAAAAA1yJhAQAAAOBaJCwAAAAAXIuEBQAAAIBredd3VMj6jnLrEAAAAADcw1tZWSlaAAAAAMBtmBIGAAAAwLVIWAAAAAC4FgkLAAAAANciYQEAAADgWiQsAAAAAFyLhAUAAACAa5GwAAAAAHAtEhYAAAAAruUNhUKiBQAAAADcxvPLX/4yFAwGZebMmVaVM5rk6OsCgYC0t7dLW1ubeDwe2XH7fawzAAAAABS6d957yeQOpaWlUlJSIj6fT7xer8kdnMh4wlJXV2edAQAAAKDQ1dfXp5WwsIYFAAAAgGuRsAAAAABwLRIWAAAAAK5FwgIAAADAtUhYAAAAALgWCQsAAAAA1yJhAQAAAOBaJCwAAAAAXIuEBQAAAIBrkbAAAAAAcC2v3iZfCwAAAAC4DSMsAAAAAFyLhAUAAACAa5GwAAAAAHAtEhYAAAAArkXCAgAAAMC1SFgAAAAAuBYJCwAAAADXImEBAAAA4Fre9vZ20QIAAAAAbuMt8zVKma/JOgQAAAAA92BKGAAAAADXImEBAAAA4FokLAAAAABci4QFAAAAgGvlZMISCnZJKMDOZkC+ykb7Jm4A+S2b7TvQvs56BOS2XP076Jn2i1NDwWBIrrvpHqvKmVAoJMFgUAKBgNkWua2tTTwej9TV1VlnZIf+h25e8aa01r9v1QDINx6PT7xF5eIvHyHFlaOkqHKM+IqrrGeTR9wA8l+m44bSRKW1/gNpb/hcgl2tVi2Qu7LRTpyor683uUNpaamUlJSIzxf+Hl6vyR2cyKkRFr1CSqcDyH+hUEACHU3Svm6hNC15SZoWvyCtqz8Kx4BO6wzniBtAYchk3LC1rpkffo8PSVaQN7LRTvpDbk0JC/9HptMBFJ7O5uWyfunL0rz89XAY6LBqHSJuAAUprbhhaV/7qfUIyE+ZaCf9wXP+1B+bKWG/u+1+q8qZgZoStur926xHmXH3w2/L83O/sI42OHCPTeW0Y3eyjuJ77+MVcu0dr1hHG/T1+uhzd5w4Qs4/aXcpKfZLe0eX3DJ7nmw/YYRM3ntz6wwA0crqtpOKEbuJx1tk1SSWStzoq00++/Jn8pfH3rWOeksmfgDoH6nEDZVK7NB+hYqOA5H9jci//0r7B7PDceWK8/aRmqpSUwf0t1TbiRPpTgnLuTUssYKH3bF4Z/5yq6a3aWdNku23HG4dffsaFRk0lAaVjz5blTBw6Hnz3lsql03dWzYeVWPVOn99JBIWwLnK0ZOkbMg21lFifXU6vvqmQa659WVpam6XqoqSHm05lTbZV0cFwMBLNm6oeAmLxo/fhWPEz8N9iOg+gIqMA9F1mqA8+8rC7v5HooQllX5OQ1ObXDXrJflmZZNV01N0zANUKu3EiYJaw9IXbeyXnrGXPHjzMb3K7JlHmSsZ0ZbXN8uKcDn+sG17JCvqmMkTzc9FSxvMz1g0EGhSct6U3Xo19ujX67kXXvsvOf6CR2IWDVQAnGtfu1ACHY3WUWq0XWpnQ9uwxgr9qcmLdkIA5J9MxI1UaEzR/sIBe25m1YhsuekQ8/PjL1abn4mk0s+xaSIT63V3XfN9khX0MlDtJJGCuA9LeWmRDKruecViUFWJ+fnCq5+bn5EeeXa+NDV39HpNpHVN7eaceJZZVzX0aslN0w42QSOSTh3RQKNXWU669PG4V06iedetl0FTrpfSx+eaUj3tz+Jpc+/cQyCTOluWS+f6JdZRal57Z4kMr6vo7jjolcndtx8dMyZE0ilhsS48aImeXppI0ZsLpXbyZeL/6CvThrUtA8iOTMSNSOsa28xPuz+RCp0mrrEjemp5smL1czKJPkfhyHQ7yZS8T1ja2rtk1doW6+hbmkToMK5O6YrV6Yg1chJJn9POjQ7h6pXaSJrwqO/uuJH5qfQKi5478+IDzZWNO64+3Fxx+fe8ReaqSaIrJLG0H7qrlD08R8pvf1ra993eqgUKQ8f6b6xHqVm6otFM94ocYR09vFrq17WY6Rfx6MWG6KuVdklmOliwtkq6dtxMKv74pHgXr5Ku8aOtZwBkQ7pxI9KbHyw1Fy71AmY82l/YevOhPS6G6N/+z75a290niL6gGU37EGdc9mSv/ooWveD5/icrrTOzhz5H4chkO8mUvEtYtFHr9Ct7WocdSGJdAbGTjpOP3qG7s6FBY9SwKhk3OvEwqXZMTgq/9qzpT/UIHkpHVCLnoS4IJyd6NXdEuCh97qA9NzOdpmTpVY3KmQ+b4v9wkfiWrZHqi/8k5Xc8bZ0B5L+uFucjktE0IdHEJNrIcNt3Qi9qRLb5yDLzrjkJEx7l+2K51EydJSVPvyHFr86Xog8WyeAfzzSjLgCyI524EUkvVH61rEEO3WdzefCfH/Rq83aMsOOBfSHDjhO6cUeiC6OR9DydwmX3VSKLJj0jh1WmNdITD32OwpOpdpJJebHoPpImKpGL4KIXtkXThXB6VdVeVJutnTqiv5cGO10MN2mXsfLpotXd08E0eXK6wFeHZfVqh2d1ozRdc5J07jLeegYoAB6vDN32LOsgvlhxI7rtK53u9d4ny028UNneCEM7AlVX/U08Dc3iaWyRxllTJTio0noWQMYlETdUX30OexH9lCO3M3GiblB5d1ISa9F9Iun0PbR/8Y8XP5Yzj9u5Rz/H7mdkatE9fY4CkmQ7cYJdwqJEJwbaAdFRDDtwJGrA0fraOcjpehMdrbEDkAakyHmqkduf2u/rtHNkX51tOftQc1z6yBw6OygsaSYskcmJ/Uc+sqMR3SYTbWcczcn2xtoB0OkVjTeeIeX3/Z8ERgyW5p8fZT0LIOMykLBoLHju1c+7/7bb/Qqd9qVtvq+ERc+78c+vyWnH7NQrSUgmYYm+EBvdz8kG+hwFhoQlfckmLCvq18vwutgNqq/kIzLJSCQ6UER/fiwazKIX52piVFVRbKaJZetqLpBPfMVVUrvlFOsovlhxw+5k6LROXXCvnYBZ973efYEi2YsIANwvmbihomOH/v2OddsCO55ETvXur4QFyLRk24kTJCxRnCQMKvqKSCRNQh59boGjodJkEha7A6SiA010ZwlAfCWDxkv12AOso/j6ihvaXpO9D4u2eW4cCeSmZOKGiowdGhN0I59ECUW8EZZ4MzycXiwlYUG2JdtOnCj4hCXWaEVfIjskThILJ1dWk0lY4l1d4WoukJyqjfaR0toN9zxKJNGFjljiJSx9Tb+I9xyAgZdM3FCpxI5MTwlLtp9zyRl7yt+fm5/S1HVAJdtOnGCEJUWMsAC5q6h8hFSN3V98xdVWTXwkLACSjRvKDQkL0J9SaSdOkLCkKdaVi4FYw8IVDsC5ytGTpGzINtZRYplOWJgSBuSeZOOGynTCkokpYUA2pdJOnCBhAVBQyuq2k4oRu4nHW2TVJEbcAApbKnFDETtQSFJtJ06km7Dk1I0jQ4H4d5MFkN9MMB2+a1LBlLgBFLZU4obN6y+zHgH5LZ120h+8C5utR7nA4zP/QQEUlqKKEVI5eu8NV358xVatQ8QNoCClFTcsJYO3sB4B+SkT7aQ/5NQIi8frD2d/u9D5APKcJ5xk6D7wurWi7lZSNeYAKRuydUpXfogbQGHIZNywldVONPP5GWlBvshGO+kPnmPOPjW0WVnurGFR+tlr1qyR9evXm88HUBh0zmtlZaXU1tY6nvdqCwUD0rBqobQ0LpNAF9PEgELh85dIefVIqRk6Ptwp81m1zoVCQWltWiUdbY0SDHRZtUD6vD6/FJdWS1nV0PDftA1jCAPVx03n76sTaS+6z7WERT931apV4vf7paioyPyDARQGjTcdHR3m59ChGuCdBTpNVlZ9/br4PR1W3MipwWUAaQgEgtLR2SmBULEMHasLip33GzRZaVrztfiky/Q3PN7Md+RQuELBkHSF/54FxS9VtWPDNZ4B6+Om+vfVqYJadK8aGhrMP1L/wSQrQGHRNl9WVmZ+aixwSkdWfOFkpbRUgyTJClBItM2XaduXDhMLkqEjK95wsuIv8pOsIOP0d6oo/Lulv2P6uzaQfdxU/772l5z7y93S0iLFxe5dFAQg+zQGaCxwSqeBFRe7e34ugOzSGKCxIBk6Dczv5+IosssfThL0d80Nfdxk/772F+/4CutRjujq6jJDSDqsRKFQCrNoDNBY4JSuWfGFXwOgcOlIS7Lr13TNSqanxgDRdKRFf9fc0MdN9u9rf+EvOAAAAADXImEBAAAActRbb70lV155pfzqV7+Sa6+9Vr788kvrmfxBwgIAAADkmLVr15pE5YYbbpCKigrZYostzC5fF1xwgdx2222unNqVKhKWLFi3bp1MnTpV3n77basGAAAAyAxdb3LVVVfJihUr5JZbbpGLL75YTj75ZLnsssvk6quvlv/85z9y9913W2fnPu+Df/+3PPTYv63D/KH3hdH/wY444oheRev1eQCI9u4HC2WvQ6bGLPqcWrR4uZx5/vXmp+22ex6P+Zp/PjfXOkPM46uu/7O0tXdYNRvo+xxz0mU9Xmd/ltLH+nkNjeutGgBAIZszZ44sW7bMjLCMGDHCqt1gu+22MwnMM888Y25CmQ+8x/9gXznu6H2tQ/eL3s0gUTnjjDPkiSee6FEuv/xyc9OaWOdnqthiPUehUDJTsmGHbcfLnGdu7VGmXTBFJk4YJ5tsPNI6q7dzTj2qx2vuu3O6ec3WW21qnRGbJisXXTZLTvnJoT1ee81vZ/dIWgC4W2tbu/ztf5+VG35/nyn//Ner0tX17Z3KlyxdaZ7X82xaZ59vl5defbf7Oft8rftg/uemPtv0c6K/eyKpvAa9xfo711eZO3eubLXVVjJs2LCYz++8885SXl4u8+bNi/l8ouI2TAkDgDh0NOTNdz+RIw/dS2qqK63axJ55fp7suN0WMm5Mzytf0data5LawdWy1+7bWTViXrP/PrvIa298ZNUAcLPVaxvlrw8+LfvsuZNc/LMpplRWVshDf3++R4ISy6gRdXLemcd2v26fPXewnolPk4ToZCe6aNJj02RCk4roc+78y2Pm+8cT/Vo7qcLA0ZlCekf6eEaOHGnWueSDgk5YnnrqKTM97MYbb5QjjzxSzj33XLP+RHdXOPHEE01dZH2kd955p/t5LYmmmUWfr4uhbPqcfob+jPxcPY4U/R5a9N9g0/fs6zn7M2bPnm2e08/Jx10kgEz789+eNj81gXBKp369+NKbcsiBu1s1fRs0qErWhDsLc+a9b9VsGHXR1393162tGgBu9s2yVTJ65DAZMXyIVSOy285bmZ+rV3971/BvltfLrDsfdpQkJLLtxM26k5zocsHUE2TihE2sMzfQG2AedvCePc479cQjpKK8zDojNk1W/vXiPJOA2e+9fn0zScsAq6urkyVLllhHsS1evFiGDx9uHeW2gh9h0a3gJkyYYKaK/fGPfzSZ6PTp0+XCCy/snkJ2yCGHyK9//evupEU7/zfddJNZ5GSfo1nu9ddfHzNp0fN1SM4+V5OGDz/8sEdCob90f/rTn+QPf/iDOUfnJOpn2EmFvofWabHfR8suu2zoRGmysmrVKnnooYe6P0PnLkZ/ht69VJ//61//Kpts0jOYAdn04IMPJiyff94/Ux6c0JEVXW/yzvufyvlnHyulJc7uPqzJyrU33yfLV66R/7nx3oTrTnQ05e4//FKeeHpO9/qVKWdeLZdddJKZngbA/dasbbIexWePppx58tEyZHC1qbOTGHv04otFS81oxgOPPmeeT0VnV5esa3D2nRJZvmK1eS87AdPEZ/fdtpUlS5ennXQhdd/5zndk/vz5ff7dfPHFFyUYDJr1LPkg7xOWu+66q8eog5bI0Y2NNtpI9tprL+tI5Nlnn5XjjjtOdtxxR6tGup/X5EETkieffNIkNJEd/smTJ8vy5cvNAqho+l7nnHOOdaRXVAfJNttsYzLfSKeffrp5Tul7V1dXmyTJ/kz9jMjvpXShlX6vRYsWyc9+9jMpLS019fo+mmjpTmV2EqXvp+8BDIQf/vCHZteSBx54IGbp7OyUzTbbzDp74NiJygFHnW+Ofz/zfEdTwezXabIy6/oLzFoUnRJ22HGXJFyLou9/5y2XdK9h0UKyAuSObSZuKkuXrTSde9vrby0wP4cMqTE/+xI9JWzTcaPNSMgJPzzIOiM2HeGwk5zooglQc0urlJVv6BOkY204WRlUUyVFfr9VI1JeVmJ+trawgdFA0TUqO+20k8ycOdMkLpGef/55ufPOO2W33XZLOG0sV+R9whJr0X1k8qBDZXYnX5MDHfmITnJOOukkMzqxdOlSk5AsXLjQjHREnnP++eeb56Onjtmip5lpYhRJE6fIBEi/k343fU9NOHTbujFjxljP9vTRRx/Jxx9/bL5n5HfSf4e+LjJhGTx4sHkM9LeioiI59dRTraOeNFHR9jHQdDTkZ5feIku/WSX/fOh6ueKSUxyNrOgOYXaC88Ljt3QnG7oQX5MXXUAfuaOYTUdjIncGi1U0CUo0Bx7AwNLRkhOPPzScRLzdnTTotKnjfnCglJVu6Nxnmq51sZOc6KJTvepqB3UnFirWGpZ7/voPk9hkwvxPvpSbb30gI9Pd4MxPf/pTc+F62rRpZkvjiy66SE444QQzY0eTGd1J7NFHH7XOzm0suo9gJwmxkhwthx9+uOnwa8c/emqWXaJHQJSO6Og0M13nYp+XzEiH/b36Mnr0aJPw6DSwyO+iRae52aM2wEDTqz2HHnqodfSt0047zXo0sOyRDi3JLLC3dwiLleBo8vLI7GtiLr4/7KA9eoyq6G5kB+67q0l67Dp9z2x1eABkjrbTn/xocnfSoKMkOn3KttHoYeZ5J+25sanZeuSMjrZErinRkY+ScCyKHBWxTT7guz2Sm8jpaenQNTO6viVT74fEtE+qfcsZM2aYWTU6TUzXK+sF60svvVTOOussuffee+X++++3XpG7ci5hibX1Wl/FyfmR5+hWxzp0ptOoWltbe5wXeY4mD4m2ibPfV9fE6KiN3nV03LhxPZ5X0edHFrsu0ffShKSxsVG++OKLXs9FFvv9KJSBLKeccorZucR2zDHHyMSJE2Oem6hkU7zRD11jogvlsyny88+75GarFoCbxZumpSXW1r/Ra1i0vPN+elua6zQuXSQfmTClanBNlVnDoutibC2tG0Z9MzHlDN+K9XfOSdl2223lRz/6kfl7uueee0pVVZWp1yRGb2T+9NNPm35i9OviFbdhhCXK8ccfb6ZR3XDDDd1TqXR9yC9/+Usz3UtHO3Tqiu5/ffvtt5vnlS6K1wzXfk00ndpl04Xw0VPCErG/lw73RS7+1++giZD+ouodT7XOps9FLroH3ECnhmnSonQq2JQpU8xjN4oe7bCL3idFtyKORaeHaUlX5OiLTisD4H7xpmnFWpOioy6xztX3ScfGY0ak9B6xRnZ05zNdw2KvydGEa97rH4S/+whGUnLAQQcdJHfccYdJYnIZCUsUHa2YNWuWGdHQJOGoo44y07nOPvvs7qlVmiDoYibdlUuf13L33XebuYT2ehibvkanu+h8Qvtclezid/t76WJ9naeo76PJiD5WOl1Ndy27+eabe3yO1gNuo1PD9MpPX2ta8pUmIbGmjemifF2rolsnO103A8B94o2wxNv1y77pZOR9U5KZQhatuqrCetTbsy+8FvP7aWls7J2w6CjNwfvvbtbk6Dm6TkVHb9JNqtB/9AaSuc4z7RenhoLBkFx30z1WlTM6XKTbpQUCAWlvbzcjCx6Px+wLnU062jFkyLf7nAMoTKtXrzYXD5xYvOBZGVKb3FounZKlN4y89Oc/6ZVA6AJ63bL4V7/4f73WptijK7quxSlNWJ54Zk7MzwKQOavXrJMxWzm/YLhm2QKpqIh/n5JI9jqSZDvzmrD8/R//Dr9uJ5OoxKNJTbJbHuvoTqL3tekNKb8OxzhNUpxOKUvlNeipublVGtvLXNHHTebvq1P19fUmd9AL+7rUwefzidfrNbmDEyQsAHJSfyQsukVxX0YMq5XfXnNezITlbw/33ZmYOGGc3HD11B6L+jVhSbROpa/PA+BcPiQs2UbCMjBIWOIjYQGQk7KdsADIP/2RsLz+1ofWUW811RXywyP377X2w05YdAF+X3QXrv5ICEhYBgYJS3w5l7Do/UxIWABoQI28d1E8JCwAVLYTFiBVmrA0tJW6JmFx+vfVqXQTFm9ra5toAQAAAAC38VbXbS7VdZtZhwAAAADgHmxrDAAAAMC1SFgAAAAAuBYJCwAAAADXyrmERXcU6OrqMjsNUCiUwiwaAzQWOOXzl0ggGLSOABSiQCBoYkEyvD6/iTlANoWCIfO75oY+brJ/X/tLziUslZWVZhtlAIVLY4DGAqfKq0eGX9NhHQEoRBoDNBYko7i0WjrDHTggm/R3TH/X3NDHTfbva3/JuYSltrbW3P+lpaXF3AMGQOHQNq9tX2OAxgKnaoaOl0CoOPzaNnOVFUDh0Dbf0tIqASk2sSAZZVVDJRTyS0dHp7kKDmSS/k6Z3y3xm9+1gezjpvr3tb94pk+fHtIvN2PGDKvKGR020tf1940jlX52Q0PDgPwPCmDg6I2mysvLpaamxvHNpmyhYEAaVi2UlsZlEuhilBYoFDoNTEdWNFnxeJO/C3soFJTWplXS0dYowQCjLcgcnQamIyuarHg8G8YQBqqPm87fVyfSvtN9LiYsAAAAAHJD2ne6t34CAAAAgOuQsAAAAABwLRIWAAAAAK5FwgIAAADAtUhYAAAAALgWCQsAAAAA1yJhAQAAAOBaJCwAAAAAXIuEBQAAAIBrkbAAAAAAcC0SFgAAAACuRcICAAAAwLVIWAAAAAC4FgkLAAAAANciYQEAAADgWiQsAAAAAFyLhAWA+4SC1gMAcCiLcSMUaLceATkuR/++eqZPnx4KBoMyY8YMq8qZUCgk+rpAICDt7e3S1tYmHo9H6urqrDOyI9C+TlrXzJf2tZ9KsKvVqgWQTzy+EvH6y6WofKj4y0dIceVo8ZUMsp5NHnEDyH+Zjhuqq2WltK1bKJ3N30hXa71VC+SubLQTJ+rr603uUFpaKiUlJeLz+cTr9ZrcwYmcG2Fprf9AWle9R6cDyGN6NTPQvlbawgnG+qUvS+PiF6V19UcpXxkibgD5L9NxQ2my0lr/PskK8kY22kl/yKmERa+Stjd8bh0BKBR6lVMD6/rl85JOOogbQGFKJ24o7djpyAqQz9JtJ/0lpxIWHbJK9j9mQ1ObXHjtv+S9j1dYNc48+/JnMvOuOdLe0WXVxKfn6fn6OgDZoaMkLSvfTupKUCpxI5tSjUkAUpNK3FA6daavkRX9W3/8BY90l8j2nGwb7+t8u19hf0Z0nyTZfgoQT6rtpL/kxaL76EbtJGlI9jUaSOxzIwsJCtC/dHqGrkdJl7Zp7SRoZ8Etojsu0Z0iLWdc9qR89U2DeR6AM5mKG0rb53Ovfi53XH24PHjzMebn7Mfe7ZVwxOI0ydDnb5k9T+oGlZvP0KKPtY4EBdmSyXaSaXmRsNz3xPvdjVoDhwaSRIEj1msSJR+jhlV1Byi7TN57c+tZAP2lbc0nEuxsto7y244TR8jsmUd1x5zzpuwml97wvNz98NvWGQCcyETc0GTh2VcWykF7biY1VaWmTn/q8ZsfLDXHmbC8vlmaWzvlmMkTrRoxj7VOnwOyxa1/X3M+YdErjR99tkoOCAcLpYHjpKN3MAGlr6sQfb1Gk5b+utrqXbdeBk25Xkofn2tK9bQ/i6etw3oWQDxdrSulvXGRdTRw7BERHfmITCA09iQ76uvU9lsOl5kXHyjz3lvq6IquxhWNLxW/e1yK3lxo4o7GH6DQuCFuLF3RaC6WlhT7rZrY1jW2yfrm3n0CrdPnkkUcgFNu+fsazdvZ2SlacpU23OF1FTIiXGyDqkvNVYi29tgJS1+vUeua+m+v9fZDd5Wyh+dI+e1PS/u+21u1AJzoXJ+5q5mxRCYjWqKncWgSctb0p8yVVR35GD282iQtes6dD70lxx+2ranX0ZH3PlnuKLlwauNRNbL79qPjXpiJpPGl5Jk3pfLmx0zcAQpVunFDE43Jk8b3uMCpF0EffW6B7LLtaHPcFz1fL5bWr2tJ2G633HSI6ac88uy303P0sdbpc6kgDsCpbP99TUXOj7AsW9lkPYrv2jte6b7SGes1g6pKpLKi2DrKLr3SUTnzYVP8Hy4S37I1Un3xn6T8jqetMwAk0tW22nqUedoBuWjm82bk1Z6KFTl/3O6gTDtrUve0UP152rE7mQ7NT0/8jkkqlB5vP2FERqeLKE2QnNC4ovFF44zGGzv2MKKLQpSJuKGjnHqhQi9YaL9Cp2jqVE2tj2fR0gaTcJSXFsm/5/W+gh3ZT9G4cf5Ju5vkxr5ooo+1LtHoTCzEASQjm39fU5XzCcvIYVXWo/i0Y6GdDu1UxHqNjqzEGn7NhlBpsTRee4o0XTVFurYZJ4GRtbLu7guk+edHWWcASES3K86WBZ+tks03HtzjSqbOH19R3ywff7HajNJWVRTLuNEbkpJYtNNhdzT+8ti7Vm3/07ii8UXjjMYbjTsafzQOAYUmU3FD+xL2xQwtiZIVHV3Rhfk6OnPE/luaCx7Ro66R/RSlicmlZ+zV/Rn6OJVkRREHkIxs/n1NVc4nLDqVSzsRkYvQtDNRUVYkpSWxG3Zfr1E60tIffF8sN1PBWo/dS1rOPlQqbnmM+aSAS8SaZ67xRK+O6gitFn0cK8bYU8l0Gpi9WP7ko3ewns0cp3PhNa5ofGk/ZBdZf8HRJu5o/AHQP3RU9vYH35StNx9qEhsdfdURGR1RSTRVVJ+3L3xEl2QuhBAHkOtyPmHRhq9B4IVXN9wYLvIqRl9/yPt6TeSuH8nQYGQnPE4FNh0ha569RtqO2sOUdfddIsFBldazABLR+6u40WvvLDHJTKpTN5zQKWm66D7RnHmlcUXji15h7dxlvIk7Gn+AQpTJuKFr1hJtqKH9i2k3vmguLuiUUZsmLjqiMuu+181Usb7oefYIS3RJ5kIIcQDJcOPf15xPWNSUI7frnudpL4JNNDwb6zX2MGxfvlnZ1D1nNbKcd/Uz4aDUf4v1AYj4S1NbeOqErg+JXhirm3joyKxOKd1q86G9Rmlt0SMf+h462pIp2kHSOfM/PGirhHEOQE+Zjhs6yhHdJ9B+gvYXbNf+Yv8eyYpN2+9d13w/7tRSvTih916K/gwtAznVFPktm39fU5UXCYt2DCLneSZKPFSyr4l3lUMDzsZxAg6AzCuqTDy6kCpNSD77aq1Zr2KL3KHHHqXVxMGe0qE/9YqrJju6E5BeWVV6z6d35qeesOhrT7r08e5Oij3VzEmcA9BTpuOGjnJE9wn0fm163zalszbSHWkdOayy1z3g7JLOuhagL9n8+5qqvEhYABQWf9kwKakeZx2lLtaoqW5frFue//bSA81UUbs+eocevWKq90PRKR36vG4xrCO3++4+ziQ29vtqApPqGhZNSuigAJmRqbgB5DO3thPPtGnTQsFgUK677jqryplQKCT6ukAgIO3t7dLW1iYej0fq6uqsM7Jj1fu3WY+c0aucV816yWxPmsz0CZ12oVcync5D12kfuuWpbl/KlU8guypHT5KyIdtYR4klGzcA5J9k44aKFzt0RPX5uV9YR73pGhUn/Y54/RSdEnbNrS9LU3PsaedVFSVy2dS9u7dRB9KVSjtxor6+3uQOpaWlUlJSIj6fT7xer8kdnMj7hAVAfimr204qR343HL2cDxATN4DClkrcUMQOFJJU24kT6SYsOTUlTPeF9vrLrCMAhaZs6PZSPmynpIIpcQMobKnEDRUKtIu/LLsXYQG3SLWd9JecSlh0m7WSms2sIwCFwl8+TCpH7y2VI3ZPOvkgbgCFKZ24oTy+EimqGGUdAfkp3XbSX3yTJk26UodoDjjgAKvKOX2dFp0W1tXVZYZ1ysvLrWezw1dSE06zfBLsaJRQ8NstRwHkD+0o+IqrpaR6rJQO2VrKh24vxVVjw084GzqORtwA8l+m44by+krF4y3S4RYJdrVYtUDuykY7caKlZUP78fv9ptjTwfJ2DYsKhYLS2rRKOtoaJRig8wEUCq/PL8Wl1VJWNTQcb5Kc3hEMSMOqhdLSuEwCXdw3Ccgmn79EyqtHSs3Q8eEOv8/Uab9hzZo1sn79etN36C86V76yslJqa2sdd44iETtQCGK12UwquEX3mqw0rflafNJl/rEeb3YzQgDuEQqGpCscc4Lil6rasY6TFu1wrPr6dfF7OqSoqCgcO3JqNiyQcwKBoHR0dkogVCxDx+4W7m14ZdWqVebK6oY2mPkOUV+0n9LR0WF+Dh2qFzuc9xuIHRhIqztGy5Ah/XQTx2C7dLaskPaWtabNZjppKahF90pHVrzhZMVf5CdZAQqMtvmicNvXGKCxwCm9OuoLdzhKSzVI0uEAsk3bWZm2N+kw7a+hocF0ULSz0p/JitLPKysrMz/1eySD2IGC4S2RosqxUlI+2Pzeu03OtT6dBub392+wA+Au/nDHQ2OBUzqVo7i4yDoC0F+03Wn70/nrxcXFVu3A0M+359E7RexAoSkqH25+790m5xIWXbOSyhxUAPlDR1qSWb+m8859Xq6OAv1NRyW0/enGPDr9Q6eEDFTRz9fvkQxiBwZSrN/jrBdPsSvXatEKAQAAALgWCQsAAMhZ8+fPtx4ByFckLAAAICfpzkMPP/yw3HnnnVYNgHxEwgIAAHLS/fffL0uXLpXTTjvNqgEK0wMPPCBHHHGE+RlN67V8+OGHVk3uIWEBAAA5R5OVF154wSQr/b1VMuAGdpISmahE1tnF9qtf/cocn3766fKf//zHqs0NOXfjyDXLFkhFRZl1lFhXV0D+9eI8WbpspfzwyP1lyOBq6xkAuay5uVVqR25lHcW3eMGzMqR2kHXkbg2N6+Xi6bfK/E8WmeOfHHuQnHPqUeaxLVPnqEWLl8tFl82SbbfeTC79+U+ktGRgt55F/lm9Zp0Ey7fK6A3wXnnlFfntb38rBx98sEydOtWqTWz16tWy8cYbW0eJJRM7otucmnX9BbLDtuOtow1uu+dx+dvDz5nHEyeMkxuunio11ZXmWDl9H5vdhvffZ5eYbTyRRN/Hfv/lK9dYNfG/Tzxt7R0y83d/kw8++lx+e815Mm7MCOuZDf753Fy59ub7rKPY36eQrGobGbfdHHnkkfKb3/zGPNbRE01WTjjhBNlmm21Mne3Xv/61+anntra2yueff26Ojz/+ePMz2trFc2TMVpOto8wouBtHJmPJ0pVyz33/kM03GyMV5c6THAAYCHZH5chD95I5z9wqLzx+i6ysX2s6FLZMnaP0ePYDz8hxP9jfqgHcb9GiRXL33XfLmDFj5NRTT7VqB5bd5qaedrRpc1ruu3O6XPPb2fLuB9/ehE/bnLZFbZN6jrZRfZ2+Xjl9H5ue/8e7/i7f3bVnB9UpJ99H31+TC/v7aLKi30cTmWTo959y5tWy93e3l9oYF4/1+Tff/aT7u2jZcbst5JbbHzaJDvqmCYoWTUjsx5FF6+3EZtdddzU/c01eJywbjR4mZ558tNQNyY0rqwAK25dfbbhZ1167b2d+6mjHSSccIu+8/2l35yBT5yi9GnvFJadIeVmJVQMMvObmZutRbPfdd5+sXbtWfvzjH5urtW6gIwB33nJJj1GHEcNqzcjl0mWrzLF2/rUNHnnIXt0jmToqMnrUUJkz731z7OR9It3/yAvyvb12kC23GGvVOOf0++gIR+RIyJZbbGy+z0cLvrBqnNF/0yOzr5FNxo2yanrS5zUe2d9FHXLg7rL0m1U9RncQW2SCEi3ec7mCNSwAEEWv9O11yNTuctX1f+6+wqd/5PUK5McLvzL19jn6Gj0nus6mj888/3rz85iTLus+R6dA2F574yNzRTFy+oN2VrQDsW5dkznO1DmAG916661y/fXXyxdfxO4MP/LII/LGG2/I97//fdljjz2s2txgX0jYZOOR5qfSzvkuO0yQr5estGqcs+PLYQel9t8h098HA0Ongj344INJlVxEwgIAEbQToNMddBqGPS1hWN1gM+86Mmm57Jq7zKiFPUXi1rsfM+fo1crIOj3XpnPSn3hmTvd76zk6X1uTFn1vnZoxdqNh1tk96dXVTJ0DuJWuR9loo41M0jJv3jyrdgPdDUxHV0aOHCnHHnusVeteL770phkdsEc6te3pRYOSiBEEm7ZZO75Ei34fpSOlf3v4efnxMQdYNclL5/soHY3JJv18nbKq09Si17qg8JCwAIBF/0BqQnHZRSf1+AMZa1rCKT85tPsc+wqlXpm0p3LYdfZVTKWjHJrk2FMe9FxdDK/zttv76BwAheaMM86QLbfc0iQtTzzxhFUr8oc//MEs2tVdjmpqaqxad9ILH3oxQteiRI50JivW+9gd+Z8ce2Cf760XSnRE1x7JjSz2yEyydL2Lvl6/T+Q0skx/lv1+Bxx1fq9EDb3pNC9dPJ9MyUUkLABg0YREd68575Kbe/zR1YWiOjpiT6fSTsLWW21qHkcaPXKo9Sg2nfetSUskHQnRP8rt7Z1WDYBzzz1XdtppJ7nnnnvkrrvukqeeekoWLFggY8eOlUMPPdQ6y5109ENHaaddMKXHWpRk9fU+f/7b0z0ujsSiMUrXwtijxJEl1e+ka9709fYmAPZ01kx/VuT76ejKaT+9rsfaOxQmEhYAsAyuqTS71+hUreg/vFrS6XzEo9MyqqsrzNSzeHPH9YpmJs4B+puOjCRT/H6/SVo233xzk6xo0qKmTJkS8/xkSjbp6MD/3HivGYGNXluiFzQ2XJxIPJra1/vo6IpO19JRjsiLKnqsWxPrY6ejGsl8n0g6sqzfS0eG+5o2lik67SyVBf75Itbvb2Rxck4qxY1IWADAonO5NXnQRevZEKtzoImFJhiaaOhoS/TccR310dfZIzqZOgdwu0GDBsn555/ffX833cZ4t912M4/dSJMM3ZBDRwViLYQfNKjK/Fzb8O26Nm2j2vHXEZPIKVZ9vY+eoztpRV9M0VEYnV6azIUVp98Hue2oo47qUXL1bvckLABg0T/QusZEF5VG3rNEr1hG7hSWKp1WptuQ2vR99arod3fd2hzrXG1NKuxFrfp5Olddd/yy18tk6hwgF+gC/IsvvtiMuFxwwQVWrfvYSYa2sb527dK2p89rW7RjibZRbav2Og0n75MpTr6PTsXS76Pfy6Z1Oi0tch1LJugUs8i4q6K/DwqXt6ioSLQAADb8Edc52jpCYU+30N2+zj/72LT/OOtdmyvKS7vfV9fK6PQz+4qozt3Wex488fQc87wuOlU6/cKWqXOAXDFhwgSTtGy6qXtHB3VzDb0gYU/LiiyRnXBdB6Ijqtom9Tnt+P/qF//PtFnl9H0yJdH30Xioi/sPO+6S7u+ha/p0Y5JMT5G1EzT7c7RoDCvkO93jW57p06eHgsGgzJgxw6pyRue46esCgYC0t7dLW1ubub2+PXSbLWuWLZCKCu5aDxS65uZWqR25lXUU3+IFz8qQ2oG9gayOpmjiwx9fFJrVa9ZJoGxLGTJkiFUzcFavXi3jxo2zjhJzQ+xA4VrZOiJuu9EpXtdcc03cG0LqOZH0fHtaWF87hq1b8qqM2WqydZQZ9fX1JnfQm72WlJSIz+cTr9drcgcnmBIGAAAA5CFNUCJLrvLts88+V2rGs99++1lVztm7CegoS1dXl8mSysvLrWezo3V9vRQXM4UNKHSdnV1SVhV/G2FbY/1nUl5Wah0NDF30/sY7H8tB++7KYlYUlNbWNgn6h0hZ2cDPjmhpaZHBgwdbR4m5IXagcK3vrIjbbp5//vnw38JO+e9//9td9Iarr732milz586VhQsX9ioNDQ3mXkZbb71h/WS09qbFUjN0c+soM7TtKV2PpsUeXWGEBQAAAMhTp512mtTW1prlGEOHDpVhw4bJ8OHDZeTIkTJq1CgZPXq02V1P718UXbQ+l7CGBUBOyrU1LECh0jUsXaUTXLOGZZNNNrGOEiN2YCCtaBk+IO2mYelc1rAAAAAAgFMkLAAAAABci4QFAAAAgGvlXMLi9fnNHDgAhSsUDJlY4JTPXyKBYNA6AtBfAoGgaX86V113E7V3Fx2Iop+v3yMZxA4MpFi/x9kuEmw3v/duk3MJS3FptXSGgw6AwqUxQGOBU+XVI6W9vcM6AtBftN1p+6usrDQb9Awk/Xz9HskgdqDQdLWuNL/3bpNzCYvedyEU8ktHR6e5ygqgcGibN21f/I7vwaJqho6XQKhYWlrazBVfANml7aylpVUCUmzan269qjuL6r0YdHfR/qSfp5+rn6/fIxnEDhQKT6hDAi1LpLOtwfzeu03ObWusQqGgtDatko62RgkGGG0BCoVOA9ORFU1WPJ7krreEggFpWLVQWhqXSaBrYK/0AvlOp5ToVVrt+Hi8PlOn/Qa9YV1/Jy26fare1FpvlOd0C9VIxA4UglhtNpPS3dY4JxMWAAAAALmB+7AAAAAAyFskLAAAAABci4QFAAAAgGuRsAAAAABwLRIWAAAAAK5FwgIAAADAtUhYAAAAALgWCQsAAAAA1yJhAQAAAOBaJCwAAAAAXIuEBQAAAIBrkbAAAAAAcC0SFgAAAACuRcICAAAAwLVIWAAAAAC4FgkLAAAAANfKyYQlFOySUKDdOgKQb7LRvokbQH7LZvsOtK+zHgG5LVf/DnqmT58eCgaDMmPGDKvKmVAoJPq6QCAg7e3t0tbWJh6PR+rq6qwzskP/QzeveFNa69+3agDkG4/HJ96icvGXj5DiylFSVDlGfMVV1rPJI24A+S/TcUNpotJa/4G0N3wuwa5WqxbIXdloJ07U19eb3KG0tFRKSkrE5wt/D6/X5A5O5NQIi14hpdMB5L9QKCCBjiZpX7dQmpa8JE2LX5DW1R+FY0CndYZzxA2gMGQybtha18wPv8eHJCvIG9loJ/3B29nZKVpyQvg/Mp0OoPB0Ni+X9Utflublr4fDQIdV6xBxAyhIacUNS/vaT61HQH7KRDvpD75JkyZdqUM0BxxwgFXlnL5Oi04L6+rqMsM65eXl1rOZ5/H6pWXFm9aRcw1NbfKrm16UEUOrZERdpVXbt6++aZCrZ70kW242VAZVlVq1G+ovnvm83P/kB/LIv+ZLZXmxbL5xrXmuvaNLbrxnrqxv7uiuA5BZXS0rzNWhooqRZljbiVTjhnr25c/k0efmy67bjhK/z9vdzmfd97qJAdFxIF2xYlWsz4wu48cNcRTbgEKUStywNS97zXrkXLJ9DpXKa4BMSqedONHS0mJ++v1+U+zpYE6nhHmmTZtm1rBcd911VpUzA7WGZdX7t1mPvvXexyvk2jtesY6+tePEEXL+SbtLW3uXXBVOQE46egfZfsvh1rMb3P3w2+bnacfuZH4qTUx+N3ue/Dz82o1H1XTXXXPry3LelN3Me2hw0fc8aM/NZPLem5tOxS3h12w/YYQ5BpA9laMnSdmQbayjxGLFDbvNvjN/uVXzrZPDsULbsSYs732y3MSRkmK/9Wzf9PylKxp7xJNokfFq1LAqueK8faTGujBix5VYsSqWZM8HClmycUPFih3azv/y2LvW0bfsuNFXu4zuq9h9FI0ttGW4RSrtxImCWsMSjzb82TOPkgdvPqa7XHrGXo46GU4s+GyV7L796O5Aoh0MDSzamdGOD4D+0752oQQ6Gq2j1Ghs0BgRGTM0hmgsGRlOJKJpJ+X4Cx6JWc647ElzUSMRPWd2uKMz8+IDzefpBQ/tpGhnBUB2ZSJuKE1KIuOGtme9+LDV5kOtM3rTZEXb/h1XH979urpB5XLfE0xXhbtkqp1kWkHfh0UTjfp1LTJ6eLVV0ze9ahrLivpmM4IDoP90tiyXzvVLrKP+Ed1JiSx3XfP97tHYeF549XPZOtypsc/dd/dxMryuQl57p+9/i8apmXfNiZkonTX9KflmZZN1JoB4shE3tH0++M8PerTrWJaF26meY4+mql22HS0ffbYqpQsWpY/PlUFTrhffl8vNz6I3F1rPAOkZiL+vTuRNwqLTOk669PEef8z1j3y80Y/l4WTjs6/W9pmMRDpgz81k3ntLzVUSpQFGr5boFdLIAASgf3Ss/8Z6lDl68aG5tVMGVcdu07GSB3taaSL2BRLtpNh0lEevsjqJQdPOmhQzWdLCFBLAmUzHDR0hiTWtNJqO2kYnJ29+sLRXEuNU1/gNcaTyhkckOGaoBGuzvy0tCkc2/r6mq6CnhOk0r+0mDDOdCDsRsTU1d8ilNzxvOiT6nF45uWzq3mbhq9bplU17/QqA/tfVkriT0Je+Ri20XX/65WrT9vX51vaeOyhq50QTDDvGaMzR+KHTxWzPz/3CvFd0IqPJkI7IRnMywqt07nv097VL5OcD6Fs6cSOSHUM0Cfn9ZYeYOBDvIqleVNBp5Bpj7Har4q1364uOpgz+8Uwp+mCRFL86X0qefkNqps4S3xeZ+bcBmWonmZTXi+6rKkpMkjGoqqTXYrbIhfXrGttMIqLnamISa9F9IhqkWHQP9COPV4Zue5Z1EF+suBFJr3re+OfX5LRjdurR5jURiFx0H71JR3S71/P7WnRvnzt50vgeIyKR76nfg4W3QBYlETdUrNihbVYvTBy4x6Y92rrW60wM3ZxHZ2Ak046Tbfvedeul+rxbJVRdLqGaCmm64icSKi22ngXSlGQ7cSLdRfd5kbBEiu5QqOhAYB9HjpBoR+PR5xaYpEX1lbDYgaov9i4hALIsSwmLXsDoaycfO+mInAIS2WmJl7Co6PgUnfBExqotNx3S67MS0WljJDpAHGkmLNrGn3v18x67+0WL7nPoa2LtKhbpnBN2kSde/MRxwlLxu8el6I1PpWnG/5Oqy++VtmP2kraj9rCeBdJEwpK+dBMWnZuu2xP/8KCteiUWdiDS8/TqCCMsgHv5iqukdssp1lF8ySQs8UZYEkmUsESP3kZ3fqI7OgAyK5m4ofqKHXZbjbfpRawLCH31FWj7cJNk24kTBZ+wJHvlYtzoGikt8cftfMSbEpbo8xhhAfpHyaDxUj3W2Q1v++p09DVNy5bphEVFTmF1ch+WWKM60RhZAZxJJm6oRBc7YomXfJCwIBck206cYITFgWQDQaKEJVGHBED2VW20j5TWTrSO4ks1YYkllTVuTsVLWGJ9x1S+P1DIkokbioQFhSjZduIEN44EUHCKykdIUeVG1hEAJEbcABJzazthhCWGdKaERS7QBZAdlaMnSdmQbayjxBKNsMSbbhU9bUvjg66Da2puN8fRos9PRrwRFqaEAelJNm6o/uhzKEZY4BaptBMnmBIGoKCU1W0nFSN2E4+3yKpJjLgBFLZU4oYidqCQpNpOnCioKWGhQOwrmgAKgwmmw3dNKpgSN4DClkrcsHn9ZdYjIL+l0076Q26tYfH4zH9QAIWlqGKEVI7ee8OVH1+SN0cjbgAFKa24YSkZvIX1CMhPmWgn/SGnEhaP1x/O/nah8wHkOU84ydB94HVrRd2tpGrMAVI2ZOuUrvwQN4DCkMm4YSurnWjm8zPSgnyRjXbSH3JuDYsKBQPSsGqhtDQuk0AX0z2AQuHzl0h59UipGTo+HFx9Vq0zoVBQWptWSUdbowQDXVYtgGzw+vxSXFotZVVDw32DDddGtd+wZs0aWb9+vek79BedK19ZWSm1tbWmn5KsgfreQH9Kt50kUnCL7jVZWfX16+L3dEhRUVH4H8zOzMBAWd0xWoYMGWId9YNgu3S2rJD2lrUydKwuDHSWtGiy0rTma/FJlwmSHm/mgzGAb4WCIekK9w+C4peq2rHhGo+sWrVK/H6/9bc7uQsO6dB+SkdHh/k5dKgmUM7bv/Z1Bup7A/0pnXbiRMHdh0VHVnzhZKW0VP+xJCtAQfGWSFHlWCkpH2xigVM6suINJyv+Ij/JCtAPtJ0Vhdubtjttfw0NDaaDop2V/u706+eVlZWZn/o9kjGQ3xvoT+m0k/6Qcz1+nQZWXOzueXYAsquofLiJBU7pNDC/n84G0N/84c6Ptr+Wlpbw3+6BXdCrn6/fIxlu+N5Af0qlnfSHnEtYdM2Kz8vICuAGOrw7IMVTnNT6NV2zkunhbQCJ6UiLtr+uri4z/SNme+6nop+v3yMZbvjeFEp/llTaSX+g5w8AAADAtUhYAAAAALgWCQsAAHClt956S6688kr51a9+Jddee618+eWX1jMACgkJC4B+8cADD8gRRxxhfkbTei0ffvihVQOgkK1du9YkKjfccINUVFTIFltsYbZbveCCC+S2225z5Rx7ANmTc/dhWbzgWRlSO8g6AjCQ6ttHxb0PiyYnsRKURIYNGyZTpkyR733ve1ZNb2u+fkXGbDXZOopvzbIF4U5P+neq/u9bn5if2229ifzfK+/J9ttsIhuNjB3zuroC8sq8j2T4sMEycYsxVi1QeJqbW2V9Z4XjezZp/0ITE+1bXHHFFTJixAjrGZH3339ffvOb38h+++0nZ511llXr3OrVq2XsWL0vjDNff/11/95rKg5N1J555hnzWJO5nXbaSd5++23zWB1yyCFyzjnnmMdAOpJtJ04U3I0jSVgA91jVNjLuH/MjjzzSdC6Ujp5o8nLCCSfINttsY+psv/71r81PPbe1tVU+//xzc3z88cebn7GsXTwnKwmLJiVfL11lHW3w3V23NIlJMglLa1tHwnOUndjUr2m0anqrq62WSbtvzdbMyEnJJiyvvPKKzJo1S37/+9/L8OHDrdpvvfnmm3LNNdfIPffcY+7KnYxkO2JfffWV4++t/aDrr7/eTGOz7bzzznLJJZeYTlo6dCqcjjZdfPHFsskmm5g6+/M0cTn88MNNHZAJ2k423nhj6ygzCu7GkQByjyYoWjQhsR9HFq23E5tdd93V/BxIY0cPlWOP2Ku7xEs4+rJ6baO0tLbL0m9WWzXxbb3lxj0+M7Lsu9d2JCvIadpRcVrmzp0rW221lRlpjfW8JgHl5eUyb968mM8nKtmwbt06+cUvfmHuEP7EE090F00mFixYYJ0l8tRTT8nVV19tko1k6Ptrx27w4MFWzYaEZcWKFTJ69GirBshfJCwA+kVkghIt3nO5SEdX3vvwS9l04xFm5GT+p4utZwAkoh1x7fjHM3LkSLPOxS30u2gyNHlyz1FfHfnYcccdrSMAqWJKGICUOZkSplPAUjVQU8LUd3aeYH5GcjIlzJ4KptO49D3WrF0vL8/7ULbYbHTMtSxOpoTp6AvrYJCrdEpYU0e546lVt956qyxZskT+53/+x6rp7bjjjpMzzzxT9t9/f6vGmWSnujidEqZTtqZPn26+V6zpWTpColNf9d9l22ijjczI8qBBg+Sdd97pXouiNPHR9Sj2tK/oaWbbbrut/OUvf7FqRKqrq83IjT1dDIXnwQcftB71TWcwbLbZZtZR39w4Jcw3adKkK/UNDjjgAKvKOX2dFk1adMcO/VAdps2mxvrPpLwsvbmgADKjpasqbpvXAKp/WFMVb8SlrfFrqRm6uXUUX+v6eikuLrKO4lu6bLVZwzL/k69NWblqnTSub5FXXvtIGppapKa6wiyk//LrFTIi/LO66tt/vyY0b7y7UEYOr+1OeMrKimVY3SB5+4PP5fNFy2TM6KFSFDG9KxgMyddLVskmG4+Q7+2xrWw9YWyvMnRIjXU2kHs6O7ukI1DkuH+gnZhHH33UdK5irVF58cUX5Y033pBTTz3V7CCWDF0jpwmCUw0NDY6+t07VKi4ulrvuusvEvS233NKMAtm0k3bYYYdJVVWV6Svdcsst5oKO1muyotPbbrzxRnOBRxfP63to/2rixImyzz77mPf77LPP5A9/+IMcfPDBZsqcnqfreS688EKZOnVqj+liKDwTJkwwGzO89tprZs1odNHfoXgb2URKtp040dLSYn76/X5T7GTFacLiLSoqEi0AkA2adOhISTJloEWuYdH1I9tP3MQ81vpYdJTk33Pel2Ur18r+k3boNTpTO7hSjjpkdzPq8tRzr8uSZfXWMwCi6QiCrv2YOXOmzJ8/36rd4Pnnn5c777xTdtttt4TTxvqbjqzMnj3bjJzoaIkmJJqMJKJTxiJ399KOosbNxYuZSgrntC+vSXwsOqpy4oknWke5iTUsAJAmXRCviY0mJZqc9EUTGU18Yi3i/+jjr+Thf8yJWf75/BtmqhlQKH7605+a7YynTZsmJ598slx00UVm9OFPf/qTSWbmzJljRmHcRpONP/7xj2bBvU7r0sRFF9onolPKtEOpSY6WZ5991noGcE4T+UMPPdQ6+tZpp51mPcpdJCwAUmZPC+2rODkn1dKfdAQlWwmDnezYIzqxymEH7iplpcXWK4DcE6sNxyva8b/qqqvMugyd+vSd73xHzj33XDO6otsE6z1Y7r33Xrn//vtjvj5eSUas1zstZ599tkla9F4pOsXGro9+X53Go+tf9N/6+OOPm2Iv3o88L/q4rzpKYZdTTjmlx3TEY445xkwtjHVuvOI2JCwABtRRRx3Vo+hc24Gma1giRzgee/o1s00xgP613XbbyY9+9CPT6dpzzz3N4nKlSYyu23j66aelqanJ1OUiXYyvMU9vlDlu3DirFkidTg3TpEXpVDC9CXM+IGEBgAj2tK3oEu9eLLrYPjLBSVR0ilfT+laz7iXW830VPV9HewCIHHTQQXLHHXeYhewDTdeqzJgxo8f9VRYtWmTuKaNrVBLdOHLp0qXWow33amFKGNKhU8M0qe9rTUsu8kyfPt1sa6wNLRk6XMS2xkBhW9k6Iu6Wnzpionekjrfbl54TSc+3R1niLcBft+TVrGxrHE8yd7oHsIFua9zYXuZ4W+Ns0u1akxnJ0KTD6fe+/fbbeyUaV1xxRY/7sOiIymWXXWa2N7a3ItZ7uOj0N9vpp5/evf2xTitTmhDdfffdJj7auzfZ76XrE7jXCzIp2XbiRLrbGpOwAEgZCQsJC5BIoSQsQL5wY8LClDAAA0oTlMjiZjpdTIsugNeF8CQrAABkHyMsAFK2omV43KuPOlVhl112MbFCY4ZdIo/tx9HGjh1r7hrdl4alc/t9hAVA8nSEpaGt1DUjLMncDV63G2aEBYUm2XbiBCMsAFxLExa9U7VeyNCbvA0bNkyGDx9utlwcNWqUjB49WsaMGWOSk+ii9QAAAIywAEhZohGWbGKEBcgNjLAAuYURFgAAAABIAgkLAAAAANciYQEAAADgWjmXsPj8JRIIBq0jAANJ56MORJFgu4kFAJBNOse+q6srZhyiUPKx6O+7/t67Tc4lLOXVI6W9vcM6AlCIulpXmljglNfnN4EYQP8KBUOm/bmh459KR6yystJsLAQUCv191997t8m5hKVm6HgJhIqlpaVNAgFGWoBC4gl1SKBliXS2NZhY4FRxabV0hjsrAPqXtjttf27o+KfSEdNt2XVH1JaWFrMrKpCv9Pdbf8/1911/790m57Y1VqFgQBpWLZSWxmUS6OLKB1AodBqYjqxosuLx+qzaxEKhoDSt/ko80iVFfn/4tc62UQSQGh1Z0WQlJH6pGrJxuMYj33zzjRnhsLc07S92P0X7LHr/J6fbqNq0v9PQ0EDSgrymbbK8vFxqamqSbiNOpLutcU4mLACQLE1aWptWSUdbowQDjLYA2aTTwHRkpaxqaLhvsGEyx0B1/LPdEQOQGAkLAAAAANfixpEAAAAA8hYJCwAAAADXImEBAAAA4FokLAAAAABci4QFAAAAgGuRsAAAAABwLRIWAAAAAK5FwgIAAADAtUhYAAAAALgWCQsAAAAA1yJhAQAAAOBaJCwAAAAAXIuEBQAAAIBreTs7O0ULAAAAALgNIywAAAAAXIuEBYC7hEL6/zY8BgAnshw3QoEO6xGQw3L476tn2rRpoWAwKNddd51V5Uwo/I/W1wUCAWlvb5e2tjbxeDxSV1dnnZEdwc710rp6vrSv+1QCHU1WLYB84fH6xeMrFV9xlRSVD5eiilFSVDna1KeKuAHkt2zEDdXVtiYcNxZKx/ol0tWy0qoFclO22okT9fX1JncoLS2VkpIS8fl84vV6Te7ghG/SpElX6hsccMABVpVz+jotmrR0dXWZDy0vL7eezY6WVe9Iy8q3udoB5KtQMPx/HSbJ6GxZbjoLgY5G8ZogW22dlBziBpDnshA3VGv9+yZ2BDubrRogh2WpnTjR0tJifvr9flPsZMVpwpJTU8ICHQ3mPy6AwtK+7jNpWvIfaV39oVXjHHEDKEzpxA2lFzh0ZAXIZ+m2k/6SUyMsmgGu/+ZV6+hb7R1dcuM9c2V9c4dsvnGtVbtBvOfiefblz+TR5+bLrtuOEr+PpT7AQAsF2s0VIY+vRIrKh1m1ifUVNxLpK3bc/fDbcv2fXpVH/jVfGpraZKetR8pX3zTIXx9/T3bYaoS88OoX8tLri0w9gIGVatxQHq9P1i95yTpyTuPCr256UUYMrZIRdZWmzo4ns+573cQOLePHDel+PtMi45SWf835XLbfcoQMqiq1zgC+lU47caqgRliyQROTmXfNMcEEgLvpFc/WVe9KR+NXVk3q3vt4hRx/wSO9iv6hj+e0Y3eSB28+xhR9DMDdMhk3lPYbYsUOre9LSbFfLj1jr+7YoWX7LYeb57T/of2QyNfrRZALr/2X+WnTmBXZX4nXf4mMU1ruuub7svGoGutZoLdMt5NMy6uE5S+PvdsrgJx06ePyzvzl1hkAcp3Ot21b96l1lDrtLET+Qb/j6sNl1LAq2WXb0dYZvcXqqGgnAoC7ZSpuqMl7b94jdsy8+EATO7bafKh1Rk99JThazrjsSflq6bdJSTp0ZEeTnFifE1niJVYobJlsJ5mWc7uErXr/NuvRt/Tqwi2z58n2E0aYQBIp3nNKG+7SFY29rpRq/XufLJfzT9rdXBkB4CIer9RsPFmKqze2KuKLFTei6chK/bqW7jafKHZoojL7sXflivP2kXVN7fKPFz+WM4/bWf49b1HMmAJggCUZN5TT2KEO2HMzuebWl6Wpud0cTztrUvcoSjyxYo2OrES+l23HiSO6Y1S2+ynedeul+rxbpe2Yvcxx8X8/kaYrfiKh0mJzjDyVQjtxIt1dwgp+Sph2LEYPz+7OCAAyLBTM6GJY/cP//NwvrCNn3vxgqRwU7qDUWHPC3/9kpRnR1ZFeAC6U4bihNHZ89NkqOWbyRDPlSqde2aO1kTQp0elbkSMdiaafVlUUm9EbeyRHEyCdMaJxRl8fL9boe0d+lhnJiZhe5lT7obtK2cNzpPz2p6V93+2tWuS1LLSTTCjoKWE6fKqBRq9QaDCJnNNOpwNwt67WVdaj9Ogf9kefW2A6BnWDymXajS+a2BCPneCMjOiUbDdhmMyeeZScfPQOVg0At8lU3FAaBzR2bLLRILlq1ktx48Z9T7xvfmqM0ORDkxrtf+h7JENHWOz36CvW2KPF9nlazpuymxmxcZq0eNo6pHLmw6b4P1wkvmVrpPriP0n5HU9bZyCfZbKdZEpeJCyxFrNFl1hTOl57Z4kMr6uQ8tIiM40jck47nQ7A3dINqNpR0IsT+od91vRDzNVRncaloyZnTX9K3l0Qe22Kvk4vaBy4x6Zy7R2vJN3hADBwMtER006/jlg89+rn8ttLD5Sfnvid7riRTjywL7ra79HU3CGX3vB894VUjTeJ6MVXjWmTJ43vMU1sy02HyOYbD5Z1jfEvxth02lfjtadI01VTpGubcRIYWSvr7r5Amn9+lHUG8pkbE5acX8OiVxKcTuWoqiiRy6bubTomeiVEr4icFE5MBlWXyu9mz5Ofn7R79y4aGjBYwwK429DtzrEexRcdN3Q0VbcXteNBLNHzyu2YoZ0I+3X2PHMdXVGsYQHcz2ncULFihyYOsdanaIz4538Wyl47jzWxQ/sXkTuBaV3kjA+96KFxIjrWONVXP8UeYYmsdxLzovm+WC41U2dJy9mHmuPSR+ZI46ypEhyUna2Y4S7JtBMn0l3DkheL7qNFLoa155dHsjseW28+tLtTEd2YSVgAd/P6S2XIxFOso/j6ihuxOhHRdLTVTlhKS/zEAyCHJRM3lJM+R7TIC6LRSY1e5Lj7kbflF6d8t7t/kumERUVfzI28YAskkmw7cYJF90nSYHHRzOd7JCtKg0qyczwBDBxvcfqbZegf+b6mk+r8b50vbtPOhZ6vnZFEW4dqZwGA+2Qibtg0YYjV1jVW3DTt4F7JSiq0PzL99/82cScZ2r+xY5iOBnEfFiQjk+0kUwpyhMUJRlgAdysbur1UjtzDOoovlaukqV71tDswTAkD3CeZuKHixQ7tJySa/ulkFHfPncZIS1tnzFgTa0QmFj0v1jbIfbGnowGxJNtOnGBKWAwkLED+q9nkMCmuGmsdxUfCAkAlEzdUugmLE/FijdOEBcikZNuJE0wJi0GHYXU4lsYN5KeSQeOluHKMdQQAiWUjbug6kVjTQrVkamrospXrzQ5ksT5Dp6cmO10MiMetf1/zcoQFQP7yFpVL1Ub7SXGV84BK3AAKWypxQxE7UEhSbSdOMMICoGB4/WVSPmyXrARTAPmJuAEk5vZ2klMJSyjQYT0CUGi8RRVSPnxXKRuytVXjDHEDKFypxg2br7jKegTkr3TbSX/IqYTF4/WHsz8WsgKFRufUVm20b0rBlLgBFKZ04oatZNAW1iMgP2WinfSH3JoS5vFKRTgDpPMB5De9aVVR+XCztWLNJodL9dj9Ux+mJm4ABSGjccNSNmSiiR2MtCBfZKOd9IecW3SvQqGgtDatko62RgkGuqxaAPnO6/NLcWm1lFUNDceb5K63EDeAwpRO3FChYEAaVi2UlsZlEuhydp8TINf4/CVSXj1SaoaOF4/XZ9VmTsHdh0U7HU1rvhafdJl/rMfr7B8KIPeFgiHpCsecoPilqnas484HcQMoXKnGDaXJyqqvXxe/p0OKiorC8SO3JqYATgUCQeno7JRAqFiGjt0t40lLwe0SpldIveFOh7/IT6cDKDDa5ovCbV9jgMYCp4gbQOFKNW4oHVnxhZOV0lLtYJGsIH/p73eZ/p5Lh/m9d5uca306ncPvz/xQFYDc4feFQ2o4FjhF3ACQbNxQOg2suLjIOgLyn/6+6++92+RcwqJzz50OHwHIT3rFNJl1KMQNAMnGDaVrVnxeRlZQOHSkxY1rtWiFAAAAAFyLhAUAAACAa5GwAAAAAHAtEpYsWL22Uf7+j39Laxv7tQMAAADp8O23335X6j7I4Z9WlXO6n7IWvRdLV9eGRa3l5eXWs9nRur4+7R07Ppj/ubz59gLZdNxo+ejjL7sfB4Mheeb516S9o1OGD60153Z1BXrURR/H8vmXS8w+75tvupFVI/LSq+/Kw4+/IHP/+74pi776RsZvNkaK/P7u579avFzGjR3R/RlPPP1y9/l2WbeuyXxX/d8s8t+hx0Ah6ezsMjeCcyITccOmFyL+9+8vSO2gaqmurrBqN7Cf+9eL87rbbHVVRXes0IsZjz35bxk9apiUl5WYOgD9J5m4oRrrPwu31VLrCCgMra1tUjN0c+soM1paWsxPf7jfq8W+B0ve3ofFKe0Y3PmXx+SG39/XoyxZutI6Izs02fg6nHhsNm5U9/E///WqrF/fLBdMPUEu/tkUU/bZcyf57Isl5py+TD7gu93n2+Wwg/dke1agH9htVy8MOKHJio6sbjR6RHd7Pe/MY+X9Dxc6fg8AANBb3iYsQwZXy5knH93dcTj1xCNk1Ig6KStPfKXk2Rde605wbr71AZn/yZfWM4k1NDVLe3uHDBlSY447u7pkXUOTbL/N+B6Jxkajh8m2EzezjgDkupbWDVNAt5m4qfmp9CZc24Xbvl7E0AQIAAAkr2DmEbW2tJmfTqZhRI5s6KjIxAmbWM98y05qdCpXpG+WrZKSkuLuqV62zxd9Yz1yLjJxsgtXaoH+YV9scMqOLR/O/8L8VDrqoiMsY8eMYGQUKAC33fO4/PO5udaRMw2N6+Xi6bfKosXLrRoA0QomYdGEQadq6BXPTLCTmn323MGq2WDN2qYenRP9PJ3+9fpbHyadcMSaEsaoDNA/dMSkuaVVBtdUWTXxaVs/7gcHmumf9gWGWXc+bEZYaLcAAKSuIBIWvcq5ZOm360qUTvPS6V46ihEt1Slh+jmrV6+VUSN7LujT6V/2SI393umMlOj6nHlvfGgdAcgGHS1taGyWtX2Msjzw6HOmLUeOsuqFCl1nxkUGAAAyxzN9+vRQMBiUGTNmWFXO6O5g+jrdIay9vV3a2trMSv+6ujrrjOxYs2yBVFSUWUfOaHKgc8gP3n9306GIPF7w6aIez6VDF/S/9+HChO+ln6+Jy247b9M9QmN3evRY57rrLkN9JUqa+GT6uwO5prm5VWpHbmUdxZds3LDb4JDaGpO47DNpZ7MuTtmL63XkVC9GKG37msDEo2vo9DUvvfq2TD5wj+73A9B/kokbavGCZ8NxYJB1lJhOCRu70TA57KA9rJrEdErYNb+9V8494wcybswIqxYYOKvXrJMxW022jjKjvr7e5A6lpaVSUlIiPp+ve6cwJ3z77LPPlfoG+bqtsXYk/v3Km3JQuFNfaXVYVq5aawKEbjtcv3pd92N7a2Adwbjvoafl/15+q8eWwpFl441G9NrS9J0PFoa/W7FsGjGSE4tucapbnS78/OvurY11S2Ol2xrr99hi87Gy53e2i1n0OT0n8t9hf3egUGRzW2Pd7vyrxctk3713NnHt1XnvdbdVTWYWfLIo3FZHdscA/RnZRjU+rFnbICf9+DCTpGjddltvLp3hWPnZF4tl8/B7sa0x0P+yva3xm+98LDXheLBFuI07pRv1vDz3Pdlt561kUE2lVQsMHLY17mf2Vc/v7rZdUlczo3cYiyx9LcLXTozOXY+cdpZtOtWEbY6BzNK4oSOgmmjouhRtZ7r+LdWbwer72VNM7/nrP8y6GAAA4FzeTgnTKVa60P2EHx7UPW3DlmhKmI6wPPrEi2b+el+i31df89Irb8khB+3RY2F/rHp7Sol2gmJNCbMlmhqm7OlhJC0oNNmYEmZf5NANLyLXnthtcemylXLogXuaaV2RU8Ki6fvoOT84Yt9e8eDZ5+cyJQwYIP0xJexvD/c9PXTihHFyw9VTpab625EUe5ew+Z8ssmp6+8mxB8k5px5lHQHZ5cYpYXmbsGhSENlRiOQkYUm2U6HvqTuERe8apuw1K5GiO0TxEhbddSzWwt3IfwcJCwpNNhKWt977RDYZO1Jq47T7WGtYbH1duLCRsAADK9sJC5AP3Jiw5O2UsL6SlWzQxEITh9rBsbc/1WQjempZdAKiiUqsZAdA/9l5+wlxk5V0aZLykx9NJlkBACAJBbFLWLRMTAmL3OFLp388/fyr8sMj989oR4QpYUDfsjHC4kSiEZZEsUPFmqoKIPsYYQESc+WUsF9f+jOTsPzP9X+wqpzJ5YQFQO4bqIQFQO4iYQESc+eUsFBXOPsIFwAAAABwGW97wyJpb/zKOgQAAAAA9+BugwAAAABci4QFAAAAgGuRsAAAAABwrZxLWLw+v9llAEDhCgVDJhY4RdwAkGzcUD5/iQSCQesIyH+BQND83rtNziUsxaXV0tnFrmZAIdMYoLHAKeIGgGTjhiqvHint7R3WEZD/9Pddf+/dJucSlrKqoRIK+aWjo9NcLQFQOLTNm7YvfhMLnCJuAIUr1bihaoaOl0CoWFpa2syVZyBf6e93S0urBKTY/N67jeeisw4Nt+WQ3HjH01aVMwN140gVCgWltWmVdLQ1SjDAVVOgUOh0Dr1Cqp0Ojye56y3EDaAwpRM3VCgYkIZVC6WlcZkEutqtWiC/6DQwHVnRZMXj9Vm1mZP2ne5zMWEBAAAAkBvSv9M9AAAAALgUCQsAAAAA1yJhAQAAAOBaJCwAAAAAXMtbUjNOSqo3tg4BAAAAwD284vGLKQAAAADgMt7mpnppblptHQIAAACAe3jLykpFCwAAAAC4DYvuAQAAALgWCQsAAAAA1yJhAQAAAOBaJCwAAAAAXIuEBQAAAIBrkbAAAAAAcC0SFgAAAACuRcICAAAAwLW86zsqZH1HuXWYG0LBLgkF2q0jAPkmG+2buAHkt2y270D7OusRkNty9e+gZ9q0aaFgMCjXXXedVeVMKBQSfV0gEJD29nZpa2sTj8cjdXV11hnZof+hm1e8Ka3171s1APKNx+MTb1G5+MtHSHHlKCmqHCO+4irr2eQRN4D8l+m4oTRRaa3/QNobPpdgV6tVC+SubLQTJ+rr603uUFpaKiUlJeLzhb+H12tyBydyakqYXiGl0wHkv1AoIIGOJmlft1CalrwkTYtfkNbVH4VjQKd1hnPEDaAwZDJu2FrXzA+/x4ckK8gb2Wgn/SG31rCE/yPT6QAKT2fzclm/9GVpXv56OAx0WLUOETeAgpRW3LC0r/3UegTkp0y0k/6Qc1PCVr1/m/UIQCEqq9tOKkbsJh5vkVWTWCpxo72jS26ZPU+2nzBCJu+9uVUb21ffNMjdj7wtvzjlu/LIs/Nl9PDqHq+5++G35fm5X5jHo4ZVyRXn7SM1VaXm+L2PV8jsx97tUQcgs1KJG6qv2BHZpnecOELOP2l3WV7f3B0HXntniSxd0SinHbuTOScVGhuuveMV6yi2k4/eIWF8csKOd+/MX27V9I5VyH+pthMn0p0SljcJS2TwiGYHk5Jiv1XT27MvfybvfbI84XkABl7l6ElSNmQb6yixvuKGJhrX3PqyNDW3S1VFiVw2dW/ZeFSNeS5WwhIdZ+zXqL4SFn1N/bqW7tiisea5Vz/v7giQsAD9I9m4oZK52BF54SI6YYmVEESbdtYk2X7L4dZR8mL1YzT+2PEomYswKFyptBMnCmoNSzwaFB68+ZgeRa886BWCs4/fhSQEyCPtaxdKoKPROkpNQ1Ob/C78x/u8KbuZeKE/NXnRTkc8Glf0/JkXHxhOWIqt2tj0M75a1iDHH7Ztdwzad/dxMryuQhYtjf85ADIrE3FD48MZlz0px1/wSI+idYuWrLXO6psdP2KVvpIVTTo0GbHpRY4Lr/2XiS/p6uvfE130M1EYMtFOsiEv78OiVxFm3jWnx1XMePR8vSqxor5Z2tq7rFoAbtXZslw61y+xjlKjV0A1cdhy0yHmWDsLu28/Wl4Ix41MWdfULuubY88JXrayyXqUnNLH58qgKdeL78vl5mfRmwutZwDEk4m4oSOwd13z/V7JhtaN22iwdVb2aewqLel9IVZHcE669PHuRKOvmSe2vv490cXpyI/Go9rJl4n/o6+ketqfTbxCbslEO8mGvEpY7ERFG6s22m/CHQKdnpHIv+ctMj8n7TJWbn/wTfM+ANytY/031qPU6HQNnRoROfqqUyd0+lamYoB2BrbefKg8+M8Put9T441eHPnujhuZ42R1jR9tflbe8IgExwyVYG32t6ME8kW6cUPZfQ07KYgc7Vi2cr2cNf0p+ctj75rjdOioip106PvZn6frWuzEREdfIukU+Nkzj+pONA7cY9Pu19p9o1ii/01aUhnF0XjUteNmUvHHJ8W7eFV3vEJuyUQ7ybScT1i0MWmjshtj3aDyHlcFlN34IodUbVr36HMLzJSNow/cyrx+2o0vZmSoFUD2dLX0PRc8Ef3jrIlJtJHDkuv8NzV3yKU3PG9KXyMpOl1V44p91dPpyG8sevVy8I9nStEHi6T41flS8vQbUjN1lvi+SP2/BVBI0okbtvueeN9c7LD7GQftuVn3xdGRwyrljqsPN1O/0qXrTCL7M/qemoBE1jlZ1G9PQ9NERhOaaBoPdW1LdP9J/11XzXrJcX9I45DGI41LGp80Tpl4xShwzslEO8k0ry6A0ZKr9I/+TdMO7m5g0Y03cm1L5CIznY9pdx5+e+mB3Qtt9XxtpHqFJPrKBQD3CHQ2W4+Sp6Mq+sc5WrLTtHQNi65l0VIZZz1LZBzSeJXq4vrOXcbL6peul85tx0nHnhOl/dBdZe3j0yWwae9OCIDe0okb8ZiRWQdTyiNHSqJLJtaJJDslTOlU+ObWTjkg3PeJpKPAGtd0aqsTGoc0Hmlc0vikccrEq3DcQm7JVjtJh+eXv/yl2SVs5syZVpUzbtklTJMKJw1S2Tv6DKoqkRv//JqcdsxO3YmKjrTE2tFj8qTxae3aASBLPF4Zuu1Z1kF8sXb60TYfa0cdpXHAjgHRu4TZO+7oYlVdtP/z8OvNc3G2NdZz7d3IYklm+9CK3z0uRW98Kk0z/p9UXX6vtB2zl7QdtYf1LIC4kogbKlbssGODPb3Kbr/asc/EtsY6oqEjGzqt3YnoHQ77EiumqcgRlsjvqzEy2RFhXbNSfvvT0njjGVJ+3/9JYMRgaf75UdazyBlJthMn0t7WONcTllhS2SY0OmEB4G6+4iqp3XKKdRRfrLhhdwpOOnoHc1FC48as+17v/sPfV8KS7LbGiaQSrwCkJpm4oZz0OWx6YSITCUu29JWwqOgkTHEflsKVbDtxgm2NARQkf3l606D0j7COjmiSolMnIpOVvmjnw57apUV310l0VVNFrrWLLoluDAcgc9KNG/FoLLj6Z/ua2KIJQbrJisaN6b//t0mEkqEXYJOd0q6jzJeesZdZf7PFJkPMNNd0pq8it2WznaSq4EZYYl1FiIcrDIA7VW20j5TWTrSO4kvmKqkt3tXIaJFXVmONsGjHI3oaKoD+l0zcUH3FjmTiQypT1zVOpBo3nM4Y0b5SMhdMdPF+on8r8kOy7cQJpoTFwBQLIL8VlY+QqrH7i6+42qqJj4QFQLJxQ2UiYUlVthMWIJZU2okTJCwxkLAA+a1y9CQpG7KNdZRYthOWSJEL823a8Ui0iHbaWZPY4APIomTjhkqUsMSbraFbCEdu6pEsJ3Ej1qiHJizx7gOjWyOTzKAvqbQTJ0hYABSUsrrtpGLEbuLxFlk1iRE3gMKWStxQxA4UklTbiRMFteg+FHC2FziA/GSC6fBdkwqmxA2gsKUSN2xef5n1CMhv6bST/pBbu4R5fOY/KIDCUlQxQipH773hyo+v7xs0xkTcAApSWnHDUjJ4C+sRkJ8y0U76Q04lLB6vP5z97ULnA8hznnCSofvAlwwab3YrqRpzgJQN2TqlKz/EDaAwZDJu2MpqJ5r5/Iy0IF9ko530h5xbw6JCwYA0rFooLY3LJNDFdA+gUPj8JVJePVJqho4PB1efVesMcQMoTOnEDUXsQCFIt50kUnCL7jVwrPr6dfF7OqSoqCj8D+bel0ChCASC0tHZKYFQsQwdqwsDnQVV4gZQuFKNG4rYgUKRTjtxIu1F9/piLblCr3L4woGjtFT/sQQOoJBomy/Tti8dJhY4RdwACleqcUMRO1Ao0mkn/SHnWp8OyRYXu3ueHYDs0higscAp4gaAZOOGInag0KTSTvpDziUsOn/U5+UqB1DI9EpQMnPJiRsAko0bitiBQpNKO+kPtEIAAAAArkXCAgAAAMC1SFgAAAAAuBYJCwAAAADXImEBAAAA4FokLAAAAABcy6t3qdcCAAAAAG7jLfM1SpmvyToEAAAAAPfI6ylhbe0dctX1f5Z/PjfXqulJ6/V5PS/Sux8slDPPv14aGtdbNd/SOn1OzwGQn1KNAbfd87gpscR7TwC5L9U+x6LFy01s0J/REr0nUChYwwIAAADAtTzTfnFqKBgMyXU33WNVORMKhSQYDEogEDBrYNra2sTj8UhdXZ11RnYsXvCsDKkdZB3Fp1cmZv7ub/L8v9+wano7cN9d5dKf/0RKS4qtmg1XQs+75GbrKLZZ118gO2w73joC0N9Wr1knY7aabB3Fl0zcUKnGAB1d+dvDz1lHvU2cME5uuHqq1FRXWjUA+lMycUP1R59DR1YuumyWLF+5xqrpbdoFU+Swg/awjoDsSradOFFfX29yh9LSUikpKRGfzyder9fkDk4UxAiLNvQ5z9zaq2h9X7Rj8c+Hru/1Gq3T5wDkt1RjwE+OPajXa7RoggMg/6XS56gdXC333Tm912teePwWk+QAhY4pYQAAAABci4QFAAAAgGuxhoU1LEBOYg0LgGSxhgVIzI1rWDwXXXRROGEJyo033mhVOZMLCQuA/JXNhAVAfspmwgLkCzcmLN7y8nLRAgAAAABuwxoWAAAAAK5FwgIAAADAtUhYAAAAALgWCQsAAAAA1yJhAQAAAOBaJCwAAAAAXIuEBQAAAIBr5VzC4vOXSCAYtI4AFKJAIGhigVPEDQDJxg1F7EChSaWd9IecS1jKq0dKe3uHdQSgEGkM0FjgFHEDQLJxQxE7UGhSaSf9IecSlpqh4yUQKpaWljaTBQIoHNrmW1paJSDFJhY4RdwACleqcUMRO1Ao0mkn/cEzffr0UDAYlBkzZlhVzoRCIdHXBQKBcDbWLm1tbeLxeKSurs46I3tCwYA0rFooLY3LJNDVbtUCyHc6TK1XfjSYerw+q9YZ4gZQmNKJG4rYgUKQbjtJpL6+3uQOpaWlUlJSIj6fT7xer8kdnMjJhAUAAABAbkg3YWGXMAAAAACuRcICAAAAwLVIWAAAAAC4FgkLAAAAANciYQEAAADgWiQsAAAAAFyLhAUAAACAa5GwAAAAAHAtEhYAAAAArkXCAgAAAMC1SFgAAAAAuBYJCwAAAADXImEBAAAA4FokLAAAAABci4QFAAAAgGuRsAAAAABwLRIWAAAAAK5FwgIAAADAtUhYAAAAALgWCQsAAAAA1yJhAQAAAOBaJCwAAAAAXMszffr0UDAYlBkzZlhVzoRCIdHXBQIBaW9vl7a2NvF4PFJXV2edAQAAAKRP+51r1qyR9evXm74nMsvn80llZaXU1taa/nym1dfXm/8NS0tLpaSkxHye1+t1/FkkLAAAAHAt7XOuWrVK/H6/FBUVmc5uLli9erUMGTLEOnI37c93dHSYn0OHDs140pJuwsKUMAAAALhWQ0OD6eBqZzdXkpVco/9dy8rKzE/97+02JCwAAABwrZaWFikuLraOkE3631n/e7sNCQsAAABcq6ury0wf0ilFlOwW/e+s/73dhoQFAAAAgGuRsAAAAABwLRIWAAAAAK5FwgIAAADAtUhYAAAAALiWV7cuc+P2ZQAAAECs3azSKU8++aRcddVV0traao7Xrl0rU6dOlSOOOKJX0XP1nLffftuco+dGvlcmyxdffCFTpkzp/mx9rHWRz59zzjk96qKL/W/R7xvreafFbbzl5eWiBQAAAMhVbW1tcvXVV8uRRx7Zq7zzzjvWWb0NGjRI/vjHP8oTTzzRXa688krZaKONZK+99rLOyr5NNtlE/vrXv3Z/B32sdcmwEyr9N+UTpoQBAAAg5+md8KdPn94r8aiurk6qA79u3Tr505/+JNtss02/dfy//PJLOfHEE3slWlqnzzn10UcfydKlS83PfELCAgAAgLw0b948GT9+vIwcOdKqSeyBBx6QJUuWyO67727VbKB1J510UtJJhBPRoyuzZ882IzwXXnih41EW/U4PPfSQ/OxnP5Nnnnkm7qhSriFhAQAAQN7RkZIPP/xQvv/978uCBQu6Ry3uuusu64ye7Cll+hrt9OvoTGSnXxMITSRSmaqVDP1MTYwOOeQQ2XHHHa3a+DRZ0dGl4447Tvbff385/fTTe33/XEbCAgAAgLyjIyWNjY1mWpd2/O3RizPOOMM641vasdfOvrrxxhtNp/+WW26Rm266ySQxukA/25566imTUOmokH5PZSdZ+lwsmpSde+65cv7555vvf/jhh5t6/ffa31+f1/NyGQkLAAAA8oomIM8++6xJWHREREdPYrFHVXQ0QouOUuhaGKWjKDoao1PAssn+DkoTFd0JTGnyYU8PO+CAA0xdJE1Cfv3rX8vw4cPNVDA9X0dadJcw/WlPM9O1OD/96U8zPo2tP5GwAAAAwLWit9xNVLRjriMLOi3qL3/5i6xYsUL+/Oc/9zjHft+SkhK5/PLL5fHHH5cddtihxzn28+PGjetOYqKfz0Sxv8Nhhx0W8/mamhpzTiS7ftasWea1+rzWRbJff/bZZ8u9995r/h12XaLiNiQsAAAAyAuLFi0yoyR77LGHGXHQ6WAXXXSRzJ07V2bMmNHnSItNR2aOOuqoXuW///2vSQ6ysWuYTveK9ZmR5bzzzjNbFhcqEhYAAADkvNtvv92s5fjRj35kRhVsOrLw+9//3oy06OL7vmjicPPNN5u1HzriYhcdpdGF+E4SnlRoYhX5eToytPPOO8uDDz7YXafJ0uDBg61XFB4SFgAAAOQ8TVK0c28vPI+kIyPa6e9r1y1NRHR0RZMdTXAi6WtPO+00WbhwoSxfvtyqHVj6fTWBih6J0YRN78OiP6Ofy1bC1R9IWAAAAFDQdI2KJjP/+7//a6aVRdLF7Xfffbe5n8uIESOs2oGl39dee+O06Pn2WpxcQ8ICAACAgqcjMxdccEGv0YmTTz5ZJk+enNMd/lznmT59eigYDJphomToDgL6ukAgIO3t7WaIyePxSF1dnXUGAAAAkB7d9WvIkCHWUe5YvXp1zn7vTN8Ys76+3uQOmvDpjmY+n0+8Xq/JHZxghAUAAACAa5GwAAAAAHAtEhYAAAAArkXCAgAAAMC1SFgAAAAAuBYJCwAAAFxLd5Pq6uoyu0xRslv0v7P+93YbEhYAAAC4VmVlpbmFBrJP/zvrf2+3IWEBAACAa9XW1pp7/7W0tJj7/yHz9L+r/vfV/87639ttuHEkAAAAXE37nQ0NDSQtWaI3ciwvL5eamhrHN3NMRro3jiRhAQAAAJA1rrjTfTYyMQAAAAD5I9WcIWNrWEhaAAAAAMSSTq7AonsAAAAArpVWwmJnSvqTERYAAAAAsUTmC8nmDWmPsNgfrgtndDGN3nAGAAAAAOybftqL7JNNVlRGEhb9AloUCQsAAAAAZecGdr7QrwmLnSHZxd6erLW11WRRAAAAAAqX3gJFcwPNETRXiM4fnMrYCIt+Cb/fb7KodevWcVMfAAAAoEBpTqA3+9SfmiMke++VSBlPWIqKiswXW7t2rbkbaWdnJyMuAAAAQJ7TPr/2/Zubm80AhuYEmhukm7CkfKd7m34xLfZd7/WL2UXrVCpfDAAAAEBusQcqNDnRRMUukQlLsrmBb5999rlS33i//fazqpJjf6D94fpFIkv0F7L/EQAAAAByX2Q+EDnrKtboSnRu4ETaIyw2e6RFi76fFvuxXR8p+hgAAABA7ohOPuyExE5OIgcw7JKKjCUsyk5C7AQlsgAAAADIb5HJSWSSYv9MRUYTFhWZnPT1GAAAAEB+iUxK+nqciownLJFIUgAAAIDCk26SEimrCQsAAAAApCPt+7AAAAAAQLaQsAAAAABwLRIWAAAAAK5FwgIAAADAtUhYAAAAALgWCQsAAAAA1yJhAQAAAOBaJCwAAAAAXIuEBQAAAIBLifx/sjnhQT5TOE4AAAAASUVORK5CYII=;" vertex="1" parent="1">
          <mxGeometry x="40" y="40" width="623.42" height="400" as="geometry" />
        </mxCell>
        <mxCell id="IWE-RGEcfRXM-lWMtXAG-17" value="내용을 입력하세요" style="rounded=0;whiteSpace=wrap;html=1;" vertex="1" parent="1">
          <mxGeometry x="680" y="200" width="130" height="20" as="geometry" />
        </mxCell>
        <mxCell id="IWE-RGEcfRXM-lWMtXAG-3" value="" style="rounded=0;whiteSpace=wrap;html=1;" vertex="1" parent="1">
          <mxGeometry x="280" y="220" width="200" height="50" as="geometry" />
        </mxCell>
        <mxCell id="IWE-RGEcfRXM-lWMtXAG-20" value="시스템" style="rounded=0;whiteSpace=wrap;html=1;" vertex="1" parent="1">
          <mxGeometry x="870" y="270" width="120" height="30" as="geometry" />
        </mxCell>
        <mxCell id="IWE-RGEcfRXM-lWMtXAG-22" value="개발자" style="rounded=0;whiteSpace=wrap;html=1;" vertex="1" parent="1">
          <mxGeometry x="870" y="300" width="120" height="30" as="geometry" />
        </mxCell>
        <mxCell id="IWE-RGEcfRXM-lWMtXAG-23" value="ROLE0002" style="rounded=0;whiteSpace=wrap;html=1;" vertex="1" parent="1">
          <mxGeometry x="750" y="300" width="120" height="30" as="geometry" />
        </mxCell>
        <mxCell id="IWE-RGEcfRXM-lWMtXAG-24" value="ROLE0001" style="rounded=0;whiteSpace=wrap;html=1;" vertex="1" parent="1">
          <mxGeometry x="750" y="270" width="120" height="30" as="geometry" />
        </mxCell>
        <mxCell id="IWE-RGEcfRXM-lWMtXAG-25" value="1" style="rounded=0;whiteSpace=wrap;html=1;" vertex="1" parent="1">
          <mxGeometry x="680" y="270" width="70" height="30" as="geometry" />
        </mxCell>
        <mxCell id="IWE-RGEcfRXM-lWMtXAG-26" value="2" style="rounded=0;whiteSpace=wrap;html=1;" vertex="1" parent="1">
          <mxGeometry x="680" y="300" width="70" height="30" as="geometry" />
        </mxCell>
      </root>
    </mxGraphModel>
  </diagram>
</mxfile>
